<svg width="24" height="24" viewBox="0 0 24 24" fill="none" xmlns="http://www.w3.org/2000/svg">
<path d="M15.0899 9.76C15.0899 9.55639 14.9235 9.39 14.7199 9.39H6.7199C6.51629 9.39 6.3499 9.55639 6.3499 9.76C6.3499 9.96362 6.51629 10.13 6.7199 10.13H14.7199C14.9235 10.13 15.0899 9.96362 15.0899 9.76Z" fill="#0A0A0D" stroke="#0A0A0D" stroke-width="0.1"/>
<path d="M6.7199 7.57H9.9199C10.1235 7.57 10.2899 7.40362 10.2899 7.2C10.2899 6.99639 10.1235 6.83 9.9199 6.83H6.7199C6.51629 6.83 6.3499 6.99639 6.3499 7.2C6.3499 7.40362 6.51629 7.57 6.7199 7.57Z" fill="#0A0A0D" stroke="#0A0A0D" stroke-width="0.1"/>
<path d="M12.7999 11.95H6.7199C6.51629 11.95 6.3499 12.1164 6.3499 12.32C6.3499 12.5236 6.51629 12.69 6.7199 12.69H12.7999C13.0035 12.69 13.1699 12.5236 13.1699 12.32C13.1699 12.1164 13.0035 11.95 12.7999 11.95Z" fill="#0A0A0D" stroke="#0A0A0D" stroke-width="0.1"/>
<path d="M13.1699 14.88C13.1699 14.6764 13.0035 14.51 12.7999 14.51H6.7199C6.51629 14.51 6.3499 14.6764 6.3499 14.88C6.3499 15.0836 6.51629 15.25 6.7199 15.25H12.7999C13.0035 15.25 13.1699 15.0836 13.1699 14.88Z" fill="#0A0A0D" stroke="#0A0A0D" stroke-width="0.1"/>
<path d="M6.7199 17.07C6.51629 17.07 6.3499 17.2364 6.3499 17.44C6.3499 17.6436 6.51629 17.81 6.7199 17.81H11.8399C12.0435 17.81 12.2099 17.6436 12.2099 17.44C12.2099 17.2364 12.0435 17.07 11.8399 17.07H6.7199Z" fill="#0A0A0D" stroke="#0A0A0D" stroke-width="0.1"/>
<path d="M15.6799 20.91H3.88995V3.08999H13.07V7.51999V7.56999H13.12H17.5499V14.88V14.93H17.5999H18.2399H18.2899V14.88V7.06879V7.04808L18.2753 7.03344L13.6065 2.36464L13.5919 2.34999H13.5711H3.19995H3.14995V2.39999V21.6V21.65H3.19995H15.6799H15.7299V21.6V20.96V20.91H15.6799ZM13.8099 6.82999V3.61191L17.028 6.82999H13.8099Z" fill="#0A0A0D" stroke="#0A0A0D" stroke-width="0.1"/>
<path d="M18.4715 18.2505L20.4831 17.2447L20.5864 17.193L20.478 17.1531L14.8332 15.0731L14.7315 15.0356L14.769 15.1373L16.849 20.7821L16.889 20.8905L16.9406 20.7872L17.9464 18.7756L20.0734 20.9026C20.1475 20.9767 20.2406 21.01 20.3359 21.01C20.4324 21.01 20.5246 20.9728 20.5976 20.9034L20.5976 20.9035L20.5985 20.9026C20.7428 20.7582 20.7428 20.5218 20.5985 20.3774L18.4715 18.2505ZM15.9851 16.286L18.7284 17.2965L17.5872 17.8657L17.5722 17.8731L17.5648 17.8881L16.9956 19.0293L15.9851 16.286Z" fill="#0A0A0D" stroke="#0A0A0D" stroke-width="0.1"/>
</svg>
