<svg width="24" height="24" viewBox="0 0 24 24" fill="none" xmlns="http://www.w3.org/2000/svg">
<path d="M20 6.5H15.5V5C15.5 4.173 14.827 3.5 14 3.5H10C9.173 3.5 8.5 4.173 8.5 5V6.5H4C2.897 6.5 2 7.397 2 8.5V18.5C2 19.603 2.897 20.5 4 20.5H20C21.103 20.5 22 19.603 22 18.5V8.5C22 7.397 21.103 6.5 20 6.5ZM9.5 5C9.5 4.7245 9.7245 4.5 10 4.5H14C14.2755 4.5 14.5 4.7245 14.5 5V6.5H9.5V5ZM4 7.5H20C20.5515 7.5 21 7.9485 21 8.5V11.6675C20.0105 12.073 16.645 13.356 13.5 13.485V12.5C13.5 12.224 13.276 12 13 12H11C10.724 12 10.5 12.224 10.5 12.5V13.485C7.355 13.356 3.9895 12.073 3 11.6675V8.5C3 7.9485 3.4485 7.5 4 7.5ZM12.5 13V15H11.5V13H12.5ZM20 19.5H4C3.4485 19.5 3 19.0515 3 18.5V12.7465C4.36 13.281 7.481 14.372 10.5 14.4855V15.5C10.5 15.776 10.724 16 11 16H13C13.276 16 13.5 15.776 13.5 15.5V14.4855C16.519 14.372 19.64 13.281 21 12.7465V18.5C21 19.0515 20.5515 19.5 20 19.5Z" fill="#0A0A0D"/>
</svg>
