<svg width="88" height="38" viewBox="0 0 88 38" fill="none" xmlns="http://www.w3.org/2000/svg">
<path d="M0.0344849 37.7357V0.203949H7.28514V37.7357H0.0344849ZM23.5458 37.7357V0.203949H30.7965V37.7357H23.5458ZM4.61946 21.5591V15.1526H25.5717V21.5591H4.61946Z" fill="#0A0A0D"/>
<path d="M41.4557 15.7042C40.3752 15.7042 39.4155 15.4765 38.5767 15.0209C37.7379 14.5511 37.0697 13.9104 36.5721 13.0989C36.0887 12.2874 35.8471 11.362 35.8471 10.3227C35.8471 9.29769 36.0816 8.38654 36.5508 7.58928C37.0342 6.77778 37.6882 6.13713 38.5127 5.66731C39.3373 5.18326 40.2543 4.94124 41.2637 4.94124C42.2589 4.94124 43.1333 5.16903 43.8868 5.6246C44.6545 6.06594 45.2516 6.67812 45.6781 7.46115C46.1188 8.22993 46.3392 9.1055 46.3392 10.0878C46.3392 10.2729 46.325 10.4651 46.2965 10.6644C46.2823 10.8495 46.2468 11.0631 46.1899 11.3051L37.5318 11.3264V9.23363L44.8891 9.21227L43.7588 10.0878C43.7304 9.47565 43.6166 8.96313 43.4176 8.55026C43.2328 8.13739 42.9556 7.82419 42.5859 7.61063C42.2305 7.38284 41.7898 7.26895 41.2637 7.26895C40.7093 7.26895 40.2259 7.39708 39.8136 7.65334C39.4013 7.89537 39.0814 8.24417 38.854 8.69975C38.6407 9.14109 38.5341 9.66785 38.5341 10.28C38.5341 10.9064 38.6478 11.4546 38.8753 11.9244C39.117 12.38 39.4582 12.7359 39.8989 12.9921C40.3396 13.2342 40.8514 13.3552 41.4343 13.3552C41.9604 13.3552 42.4366 13.2698 42.8631 13.0989C43.2896 12.9138 43.6593 12.6433 43.9721 12.2874L45.6141 13.9318C45.1165 14.5155 44.5052 14.9568 43.7801 15.2558C43.0693 15.5548 42.2945 15.7042 41.4557 15.7042Z" fill="#0A0A0D"/>
<path d="M52.5879 15.7042C51.6496 15.7042 50.8037 15.4693 50.0502 14.9995C49.2967 14.5297 48.7067 13.8891 48.2801 13.0776C47.8536 12.2661 47.6404 11.3549 47.6404 10.3441C47.6404 9.31905 47.8536 8.40077 48.2801 7.58928C48.7067 6.77778 49.2967 6.13713 50.0502 5.66731C50.8037 5.1975 51.6496 4.96259 52.5879 4.96259C53.3272 4.96259 53.9883 5.11208 54.5712 5.41105C55.1541 5.71002 55.6161 6.13001 55.9573 6.67101C56.3127 7.19777 56.5047 7.79571 56.5331 8.46484V12.1806C56.5047 12.864 56.3127 13.4691 55.9573 13.9958C55.6161 14.5226 55.1541 14.9426 54.5712 15.2558C53.9883 15.5548 53.3272 15.7042 52.5879 15.7042ZM53.0997 13.1203C53.8816 13.1203 54.5143 12.864 54.9977 12.3515C55.481 11.8247 55.7227 11.1485 55.7227 10.3227C55.7227 9.78174 55.609 9.30481 55.3815 8.89194C55.1683 8.46484 54.8626 8.13739 54.4645 7.90961C54.0807 7.66758 53.6257 7.54657 53.0997 7.54657C52.5879 7.54657 52.1329 7.66758 51.7349 7.90961C51.351 8.13739 51.0453 8.46484 50.8179 8.89194C50.6046 9.30481 50.498 9.78174 50.498 10.3227C50.498 10.878 50.6046 11.3691 50.8179 11.7962C51.0453 12.2091 51.351 12.5366 51.7349 12.7786C52.1329 13.0064 52.5879 13.1203 53.0997 13.1203ZM55.5735 15.4907V12.7145L56.0213 10.1946L55.5735 7.71741V5.17615H58.3458V15.4907H55.5735Z" fill="#0A0A0D"/>
<path d="M65.3808 15.7042C64.4283 15.7042 63.5753 15.4693 62.8218 14.9995C62.0683 14.5297 61.4712 13.8891 61.0304 13.0776C60.6039 12.2661 60.3907 11.3549 60.3907 10.3441C60.3907 9.31905 60.6039 8.40077 61.0304 7.58928C61.4712 6.77778 62.0612 6.13713 62.8005 5.66731C63.554 5.1975 64.4141 4.96259 65.3808 4.96259C66.1201 4.96259 66.7812 5.11208 67.3641 5.41105C67.9612 5.71002 68.4375 6.13001 68.7929 6.67101C69.1626 7.19777 69.3616 7.79571 69.39 8.46484V12.1379C69.3616 12.8071 69.1697 13.4121 68.8142 13.9531C68.4588 14.4941 67.9826 14.9212 67.3854 15.2344C66.7883 15.5476 66.1201 15.7042 65.3808 15.7042ZM65.85 13.1203C66.376 13.1203 66.831 13.0064 67.2148 12.7786C67.6129 12.5366 67.9186 12.2091 68.1318 11.7962C68.3593 11.3691 68.473 10.878 68.473 10.3227C68.473 9.78174 68.3593 9.30481 68.1318 8.89194C67.9186 8.46484 67.6129 8.13739 67.2148 7.90961C66.831 7.66758 66.3831 7.54657 65.8713 7.54657C65.3453 7.54657 64.8832 7.66758 64.4852 7.90961C64.1013 8.15163 63.7956 8.47908 63.5682 8.89194C63.3549 9.30481 63.2483 9.78174 63.2483 10.3227C63.2483 10.878 63.3549 11.3691 63.5682 11.7962C63.7956 12.2091 64.1084 12.5366 64.5065 12.7786C64.9046 13.0064 65.3524 13.1203 65.85 13.1203ZM71.0961 15.4907H68.3238V12.7145L68.7716 10.1946L68.3024 7.71741V0.0509033H71.0961V15.4907Z" fill="#0A0A0D"/>
<path d="M40.9225 37.9492C40.0126 37.9492 39.2023 37.757 38.4914 37.3726C37.7948 36.9882 37.2474 36.4543 36.8494 35.771C36.4513 35.0876 36.2522 34.2975 36.2522 33.4006V27.4211H39.0672V33.3365C39.0672 33.7636 39.1383 34.1338 39.2805 34.447C39.4226 34.7459 39.6359 34.9737 39.9202 35.1303C40.2046 35.2869 40.5387 35.3652 40.9225 35.3652C41.5054 35.3652 41.9604 35.1873 42.2873 34.8314C42.6143 34.4754 42.7778 33.9771 42.7778 33.3365V27.4211H45.5715V33.4006C45.5715 34.3117 45.3724 35.109 44.9744 35.7923C44.5905 36.4757 44.0432 37.0096 43.3323 37.394C42.6357 37.7641 41.8324 37.9492 40.9225 37.9492Z" fill="#0A0A0D"/>
<path d="M54.9402 37.7357V31.8203C54.9402 31.2081 54.7483 30.7098 54.3644 30.3254C53.9805 29.941 53.4829 29.7488 52.8716 29.7488C52.4735 29.7488 52.1181 29.8342 51.8053 30.0051C51.4926 30.1759 51.2438 30.418 51.059 30.7312C50.8883 31.0444 50.803 31.4074 50.803 31.8203L49.7154 31.265C49.7154 30.4535 49.8861 29.7488 50.2273 29.1509C50.5827 28.5387 51.0661 28.0618 51.6774 27.7201C52.3029 27.3784 53.0067 27.2076 53.7886 27.2076C54.5421 27.2076 55.2174 27.3998 55.8145 27.7842C56.4116 28.1543 56.8808 28.6455 57.222 29.2577C57.5632 29.8556 57.7338 30.5034 57.7338 31.201V37.7357H54.9402ZM48.0094 37.7357V27.4211H50.803V37.7357H48.0094Z" fill="#0A0A0D"/>
<path d="M61.5866 37.7357V23.1287H64.3802V37.7357H61.5866ZM59.1768 29.877V27.4211H66.79V29.877H59.1768Z" fill="#0A0A0D"/>
<path d="M73.2506 37.9492C72.1701 37.9492 71.2105 37.7214 70.3717 37.2658C69.5329 36.796 68.8647 36.1554 68.3671 35.3439C67.8837 34.5324 67.642 33.607 67.642 32.5677C67.642 31.5427 67.8766 30.6315 68.3457 29.8342C68.8291 29.0227 69.4831 28.3821 70.3077 27.9123C71.1323 27.4282 72.0493 27.1862 73.0587 27.1862C74.0539 27.1862 74.9282 27.414 75.6817 27.8696C76.4494 28.3109 77.0465 28.9231 77.4731 29.7061C77.9138 30.4749 78.1341 31.3505 78.1341 32.3328C78.1341 32.5179 78.1199 32.7101 78.0915 32.9094C78.0773 33.0945 78.0417 33.308 77.9849 33.55L69.3267 33.5714V31.4786L76.684 31.4572L75.5538 32.3328C75.5253 31.7206 75.4116 31.2081 75.2125 30.7952C75.0277 30.3824 74.7505 30.0692 74.3809 29.8556C74.0254 29.6278 73.5847 29.5139 73.0587 29.5139C72.5042 29.5139 72.0208 29.6421 71.6085 29.8983C71.1963 30.1403 70.8764 30.4891 70.6489 30.9447C70.4356 31.3861 70.329 31.9128 70.329 32.525C70.329 33.1514 70.4427 33.6995 70.6702 34.1693C70.9119 34.6249 71.2531 34.9808 71.6938 35.2371C72.1346 35.4791 72.6464 35.6001 73.2293 35.6001C73.7553 35.6001 74.2316 35.5147 74.6581 35.3439C75.0846 35.1588 75.4542 34.8883 75.767 34.5324L77.4091 36.1767C76.9115 36.7604 76.3001 37.2018 75.5751 37.5008C74.8642 37.7997 74.0894 37.9492 73.2506 37.9492Z" fill="#0A0A0D"/>
<path d="M80.0751 37.7357V27.4211H82.8687V37.7357H80.0751ZM82.8687 32.0338L81.7811 31.3078C81.9091 30.0407 82.2787 29.0441 82.89 28.318C83.5014 27.5777 84.3828 27.2076 85.5344 27.2076C86.032 27.2076 86.4798 27.293 86.8779 27.4638C87.276 27.6204 87.6385 27.8838 87.9655 28.254L86.2168 30.2613C86.0604 30.0905 85.8685 29.9624 85.641 29.877C85.4278 29.7915 85.179 29.7488 84.8946 29.7488C84.2975 29.7488 83.807 29.941 83.4232 30.3254C83.0535 30.6956 82.8687 31.265 82.8687 32.0338Z" fill="#0A0A0D"/>
</svg>
