<svg width="24" height="24" viewBox="0 0 24 24" fill="none" xmlns="http://www.w3.org/2000/svg">
<path d="M13.6315 21H4.23826C4.03449 21 3.87 20.8366 3.87 20.6341V3.58788C3.87 3.26345 4.13515 3 4.46167 3H13.4056C13.7321 3 13.9973 3.26345 13.9973 3.58788V20.6341C13.9997 20.8341 13.8352 21 13.6315 21ZM4.60652 20.2682H13.2632V3.72937H4.60652V20.2682Z" fill="#0A0A0D"/>
<path d="M7.36851 21C7.16474 21 7.00024 20.8366 7.00024 20.6341V17.4312C7.00024 17.158 7.22366 16.9336 7.50108 16.9336H10.3686C10.6436 16.9336 10.8695 17.1556 10.8695 17.4312V20.6341C10.8695 20.8366 10.705 21 10.5012 21H7.38324C7.37833 20.9976 7.37342 21 7.36851 21ZM7.73677 20.2658H10.1305V17.6654H7.73677V20.2658Z" fill="#0A0A0D"/>
<path d="M19.7643 21H13.6314C13.4277 21 13.2632 20.8366 13.2632 20.6341V7.55428C13.2632 7.42988 13.327 7.31279 13.4326 7.24693C13.5382 7.17862 13.6707 7.17131 13.7861 7.22253L19.919 10.0156C20.0491 10.0741 20.135 10.2059 20.135 10.3473V20.6341C20.1325 20.8341 19.9681 21 19.7643 21ZM13.9997 20.2682H19.396V10.584L13.9997 8.12509V20.2682Z" fill="#0A0A0D"/>
<path d="M17.0243 12.1915H13.9974C13.7953 12.1915 13.6315 12.3553 13.6315 12.5574C13.6315 12.7595 13.7953 12.9233 13.9974 12.9233H17.0243C17.2264 12.9233 17.3902 12.7595 17.3902 12.5574C17.3902 12.3553 17.2264 12.1915 17.0243 12.1915Z" fill="#0A0A0D"/>
<path d="M17.0243 14.7943H13.9974C13.7953 14.7943 13.6315 14.9581 13.6315 15.1602C13.6315 15.3623 13.7953 15.5261 13.9974 15.5261H17.0243C17.2264 15.5261 17.3902 15.3623 17.3902 15.1602C17.3902 14.9581 17.2264 14.7943 17.0243 14.7943Z" fill="#0A0A0D"/>
<path d="M17.0243 17.3971H13.9974C13.7953 17.3971 13.6315 17.5609 13.6315 17.763C13.6315 17.9651 13.7953 18.1289 13.9974 18.1289H17.0243C17.2264 18.1289 17.3902 17.9651 17.3902 17.763C17.3902 17.5609 17.2264 17.3971 17.0243 17.3971Z" fill="#0A0A0D"/>
<path d="M7.73677 7.28601V6.2223C7.73677 6.01891 7.5719 5.85403 7.36851 5.85403C7.16512 5.85403 7.00024 6.01891 7.00024 6.2223V7.28601C7.00024 7.4894 7.16512 7.65428 7.36851 7.65428C7.5719 7.65428 7.73677 7.4894 7.73677 7.28601Z" fill="#0A0A0D"/>
<path d="M10.867 7.28601V6.2223C10.867 6.01891 10.7021 5.85403 10.4988 5.85403C10.2954 5.85403 10.1305 6.01891 10.1305 6.2223V7.28601C10.1305 7.4894 10.2954 7.65428 10.4988 7.65428C10.7021 7.65428 10.867 7.4894 10.867 7.28601Z" fill="#0A0A0D"/>
<path d="M7.73677 10.8792V9.81547C7.73677 9.61208 7.5719 9.4472 7.36851 9.4472C7.16512 9.4472 7.00024 9.61208 7.00024 9.81547V10.8792C7.00024 11.0826 7.16512 11.2474 7.36851 11.2474C7.5719 11.2474 7.73677 11.0826 7.73677 10.8792Z" fill="#0A0A0D"/>
<path d="M10.867 10.8792V9.81547C10.867 9.61208 10.7021 9.4472 10.4988 9.4472C10.2954 9.4472 10.1305 9.61208 10.1305 9.81547V10.8792C10.1305 11.0826 10.2954 11.2474 10.4988 11.2474C10.7021 11.2474 10.867 11.0826 10.867 10.8792Z" fill="#0A0A0D"/>
<path d="M7.73677 14.4699V13.4062C7.73677 13.2028 7.5719 13.0379 7.36851 13.0379C7.16512 13.0379 7.00024 13.2028 7.00024 13.4062V14.4699C7.00024 14.6733 7.16512 14.8382 7.36851 14.8382C7.5719 14.8382 7.73677 14.6733 7.73677 14.4699Z" fill="#0A0A0D"/>
<path d="M10.867 14.4699V13.4062C10.867 13.2028 10.7021 13.0379 10.4988 13.0379C10.2954 13.0379 10.1305 13.2028 10.1305 13.4062V14.4699C10.1305 14.6733 10.2954 14.8382 10.4988 14.8382C10.7021 14.8382 10.867 14.6733 10.867 14.4699Z" fill="#0A0A0D"/>
<path d="M21.1341 20.2682H2.8659C2.66382 20.2682 2.5 20.432 2.5 20.6341C2.5 20.8362 2.66382 21 2.8659 21H21.1341C21.3362 21 21.5 20.8362 21.5 20.6341C21.5 20.432 21.3362 20.2682 21.1341 20.2682Z" fill="#0A0A0D"/>
</svg>
