<svg width="24" height="24" viewBox="0 0 24 24" fill="none" xmlns="http://www.w3.org/2000/svg">
<path d="M14.8336 11.7073H13.4955V10.9198C13.731 10.7025 13.919 10.4388 14.0476 10.1453C14.1763 9.85182 14.2428 9.53488 14.2429 9.21443V8.331C14.2429 7.7128 13.9973 7.11991 13.5602 6.68278C13.1231 6.24564 12.5302 6.00006 11.912 6.00006C11.2938 6.00006 10.7009 6.24564 10.2638 6.68278C9.82662 7.11991 9.58104 7.7128 9.58104 8.331V9.21443C9.58121 9.53488 9.6477 9.85182 9.77633 10.1453C9.90496 10.4388 10.0929 10.7025 10.3285 10.9198V11.7073H8.99041C8.46264 11.7081 7.95673 11.9182 7.58361 12.2915C7.21049 12.6647 7.00061 13.1707 7 13.6985V17.6395C7 17.7351 7.03799 17.8268 7.10561 17.8945C7.17323 17.9621 7.26495 18.0001 7.36058 18.0001H16.4641C16.5597 18.0001 16.6515 17.9621 16.7191 17.8945C16.7867 17.8268 16.8247 17.7351 16.8247 17.6395V13.6985C16.8241 13.1706 16.6141 12.6645 16.2408 12.2912C15.8675 11.9179 15.3614 11.708 14.8336 11.7073ZM12.4979 16.2592L11.912 16.8967L11.3261 16.2592L11.7833 13.8387H12.0406L12.4979 16.2592ZM12.1827 13.1175H11.6413V12.8875H12.1827V13.1175ZM10.3022 8.331C10.3022 7.90406 10.4718 7.49461 10.7737 7.19272C11.0756 6.89082 11.485 6.72122 11.912 6.72122C12.3389 6.72122 12.7484 6.89082 13.0503 7.19272C13.3522 7.49461 13.5218 7.90406 13.5218 8.331V9.21443C13.5218 9.64137 13.3522 10.0508 13.0503 10.3527C12.7484 10.6546 12.3389 10.8242 11.912 10.8242C11.485 10.8242 11.0756 10.6546 10.7737 10.3527C10.4718 10.0508 10.3022 9.64137 10.3022 9.21443V8.331ZM11.912 11.5452C12.2075 11.545 12.5002 11.4882 12.7743 11.3779V11.8702L12.3059 12.1669H11.5152L11.0496 11.8702V11.3779C11.3238 11.4882 11.6165 11.545 11.912 11.5452ZM7.72044 13.6985C7.72101 13.3619 7.85502 13.0393 8.09308 12.8014C8.33114 12.5634 8.65383 12.4296 8.99041 12.4292H10.584L10.9201 12.6431V13.4788C10.9202 13.5343 10.9332 13.5891 10.9581 13.6388C10.983 13.6884 11.019 13.7316 11.0635 13.765L10.5839 16.3035C10.5735 16.3586 10.5761 16.4155 10.5915 16.4695C10.6069 16.5234 10.6347 16.5731 10.6727 16.6144L11.2836 17.2789H7.72102L7.72044 13.6985ZM16.1035 17.2789H12.541L13.1518 16.6144C13.1898 16.5731 13.2176 16.5234 13.233 16.4695C13.2485 16.4155 13.2511 16.3586 13.2407 16.3035L12.7611 13.765C12.8055 13.7316 12.8416 13.6884 12.8665 13.6388C12.8913 13.5891 12.9043 13.5343 12.9044 13.4788V12.6423L13.2389 12.4285H14.8336C15.1701 12.4289 15.4928 12.5627 15.7309 12.8006C15.9689 13.0386 16.103 13.3612 16.1035 13.6978V17.2789Z" fill="#0A0A0D"/>
<path d="M12 2C10.0222 2 8.08879 2.58649 6.4443 3.6853C4.79981 4.78412 3.51809 6.3459 2.76121 8.17316C2.00433 10.0004 1.8063 12.0111 2.19215 13.9509C2.578 15.8907 3.53041 17.6725 4.92894 19.0711C6.32746 20.4696 8.10929 21.422 10.0491 21.8078C11.9889 22.1937 13.9996 21.9957 15.8268 21.2388C17.6541 20.4819 19.2159 19.2002 20.3147 17.5557C21.4135 15.9112 22 13.9778 22 12C21.997 9.34877 20.9424 6.807 19.0677 4.9323C17.193 3.05759 14.6512 2.00305 12 2ZM12.4111 21.1672V19.7258C12.4111 19.6167 12.3678 19.5122 12.2907 19.4351C12.2136 19.358 12.109 19.3147 12 19.3147C11.891 19.3147 11.7864 19.358 11.7093 19.4351C11.6322 19.5122 11.5889 19.6167 11.5889 19.7258V21.1672C9.30033 21.0619 7.13369 20.1054 5.51384 18.4854C3.89399 16.8653 2.9378 14.6985 2.83279 12.41H4.21945C4.32849 12.41 4.43306 12.3667 4.51016 12.2896C4.58726 12.2125 4.63058 12.1079 4.63058 11.9988C4.63058 11.8898 4.58726 11.7852 4.51016 11.7081C4.43306 11.631 4.32849 11.5877 4.21945 11.5877H2.83279C2.93847 9.2996 3.89494 7.13346 5.51471 5.51391C7.13448 3.89435 9.30075 2.93816 11.5889 2.83278V4.25908C11.5889 4.36812 11.6322 4.47269 11.7093 4.54979C11.7864 4.62689 11.891 4.67021 12 4.67021C12.109 4.67021 12.2136 4.62689 12.2907 4.54979C12.3678 4.47269 12.4111 4.36812 12.4111 4.25908V2.83278C14.6993 2.93816 16.8655 3.89435 18.4853 5.51391C20.1051 7.13346 21.0615 9.2996 21.1672 11.5877H19.733C19.624 11.5877 19.5194 11.631 19.4423 11.7081C19.3652 11.7852 19.3219 11.8898 19.3219 11.9988C19.3219 12.1079 19.3652 12.2125 19.4423 12.2896C19.5194 12.3667 19.624 12.41 19.733 12.41H21.1672C21.0622 14.6985 20.106 16.8653 18.4862 18.4854C16.8663 20.1054 14.6997 21.0619 12.4111 21.1672Z" fill="#0A0A0D"/>
</svg>
