<svg width="24" height="24" viewBox="0 0 24 24" fill="none" xmlns="http://www.w3.org/2000/svg">
<path d="M9.12866 14.0615L9.12869 14.0615C9.16556 14.0285 9.19274 14.0024 9.21389 13.9716C9.23472 13.9412 9.25041 13.9052 9.26192 13.852C9.28531 13.7438 9.29058 13.5694 9.28853 13.2383C9.28769 13.1041 9.28567 12.9446 9.28326 12.754C9.27379 12.0072 9.25828 10.7829 9.28442 8.73091C9.28442 8.73086 9.28442 8.73081 9.28443 8.73075L9.30942 8.73107L9.12866 14.0615ZM9.12866 14.0615L9.12763 14.0625M9.12866 14.0615L9.12763 14.0625M9.12763 14.0625C9.03661 14.1541 8.8818 14.1869 8.75318 14.1872C8.5053 14.1552 8.31724 13.9363 8.31724 13.6509V7.97164C8.31724 7.68813 8.53588 7.46834 8.81724 7.46834H15.1829C15.4642 7.46834 15.6829 7.68813 15.6829 7.97164V13.6839C15.6829 13.9693 15.4948 14.1882 15.2469 14.2202C15.1183 14.22 14.9635 14.1871 14.8725 14.0955L14.8725 14.0955M9.12763 14.0625L14.8725 14.0955M14.8725 14.0955L14.8714 14.0945M14.8725 14.0955L14.8714 14.0945M14.8714 14.0945C14.8347 14.0617 14.8075 14.0351 14.7864 14.0035C14.7655 13.9723 14.7497 13.935 14.7382 13.8805C14.7148 13.7696 14.7095 13.592 14.7116 13.2589C14.7124 13.1232 14.7144 12.9621 14.7169 12.7699C14.7263 12.0213 14.7418 10.8002 14.7157 8.76395M14.8714 14.0945L13.9766 20.9731M13.9766 20.9731V20.9481V19.6853H13.6407C13.2658 19.6853 12.9594 19.3768 12.9594 18.9999V16.2594C12.9594 15.8825 13.2658 15.574 13.6407 15.574H14.0094V15.5725V15.5677V15.5627V15.5577V15.5525V15.5472V15.5418V15.5363V15.5307V15.525V15.5191V15.5132V15.5071V15.5009V15.4947V15.4883V15.4818V15.4751V15.4684V15.4616V15.4547V15.4476V15.4405V15.4332V15.4259V15.4184V15.4109V15.4032V15.3954V15.3876V15.3796V15.3715V15.3634V15.3551V15.3467V15.3382V15.3297V15.321V15.3122V15.3034V15.2944V15.2853V15.2762V15.2669V15.2576V15.2482V15.2386V15.229V15.2193V15.2095V15.1996V15.1896V15.1795V15.1693V15.159V15.1487V15.1382V15.1277V15.1171V15.1064V15.0956V15.0847V15.0737V15.0626V15.0515V15.0403V15.029V15.0176V15.0061V14.9945V14.9829V14.9711V14.9593V14.9474V14.9355V14.9234V14.9113V14.8991V14.8868V14.8744V14.862V14.8495V14.8369V14.8242V14.8114V14.7986V14.7857V14.7727V14.7597V14.7466V14.7334V14.7201V14.7068V14.6934V14.6799V14.6663V14.6527V14.639V14.6253V14.6115V14.5976V14.5836V14.5696V14.5555V14.5413V14.5271V14.5128V14.4984V14.484V14.4695V14.455V14.4404V14.4257V14.411V14.3962V14.3813V14.3664V14.3514V14.3364V14.3213V14.3061V14.2909V14.2757V14.2603V14.245V14.2295V14.214V14.1985V14.1829V14.1672V14.1515V14.1358V14.1199V14.1041V14.0882V14.0722V14.0562V14.0401V14.024V14.0078V13.9916V13.9753V13.959V13.9426V13.9262V13.9098V13.8933V13.8767V13.8602V13.8435V13.8268V13.8101V13.7934V13.7766V13.7597V13.7428V13.7259V13.7089V13.6919V13.6749V13.6578V13.6406V13.6235V13.6063V13.589V13.5717V13.5544V13.5371V13.5197V13.5023V13.4848V13.4673V13.4498V13.4323V13.4147V13.3971V13.3794V13.3617V13.344V13.3263V13.3085V13.2907V13.2729V13.255V13.2372V13.2193V13.2013V13.1834V13.1654V13.1474V13.1293V13.1113V13.0932V13.0751V13.057V13.0388V13.0206V13.0024V12.9842V12.966V12.9477V12.9295V12.9112V12.8929V12.8745V12.8562V12.8378V12.8194V12.8011V12.7826V12.7642V12.7458V12.7273V12.7089V12.6904V12.6719V12.6534V12.6349V12.6163V12.5978V12.5793V12.5607V12.5421V12.5236V12.505V12.4864V12.4678V12.4492V12.4306V12.412V12.3933V12.3747V12.3561V12.3375V12.3188V12.3002V12.2815V12.2629V12.2442V12.2256V12.207V12.1883V12.1697V12.151V12.1324V12.1137V12.0951V12.0765V12.0578V12.0392V12.0206V12.002V11.9833V11.9647V11.9461V11.9275V11.909V11.8904V11.8718V11.8532V11.8347V11.8161V11.7976V11.7791V11.7606V11.7421V11.7236V11.7051V11.6867V11.6682V11.6498V11.6314V11.613V11.5946V11.5762V11.5578V11.5395V11.5212V11.5029V11.4846V11.4663V11.4481V11.4298V11.4116V11.3934V11.3753V11.3571V11.339V11.3209V11.3028V11.2848V11.2668V11.2488V11.2308V11.2128V11.1949V11.177V11.1591V11.1413V11.1235V11.1057V11.0879V11.0702V11.0525V11.0348V11.0172V10.9996V10.982V10.9645V10.947V10.9295V10.9121V10.8947V10.8773V10.86V10.8427V10.8254V10.8082V10.791V10.7738V10.7567V10.7396V10.7226V10.7056V10.6886V10.6717V10.6548V10.638V10.6212V10.6045V10.5878V10.5711V10.5545V10.5379V10.5214V10.5049V10.4885V10.4721V10.4557V10.4394V10.4232V10.407V10.3908V10.3747V10.3587V10.3427V10.3267V10.3108V10.295V10.2792V10.2634V10.2477V10.2321V10.2165V10.201V10.1855V10.1701V10.1547V10.1394V10.1242V10.109V10.0939V10.0788V10.0638V10.0488V10.0339V10.0191V10.0043V9.98962V9.97497V9.96038V9.94585V9.93139V9.91699V9.90266V9.88839V9.87419V9.86005V9.84598V9.83197V9.81803V9.80416V9.79036V9.77663V9.76296V9.74937V9.73584V9.72239V9.709V9.69569V9.68245V9.66928V9.65619V9.64317V9.63022V9.61735V9.60455V9.59183V9.57918V9.56661V9.55412V9.54171V9.52937V9.51711V9.50493V9.49282V9.4808V9.46886V9.457V9.44522V9.43352V9.42191V9.41037V9.39892V9.38755V9.37627V9.36507V9.35396V9.34293V9.33199V9.32114V9.31037V9.29969V9.28909V9.27859V9.26817V9.25785V9.24761V9.23747V9.22741V9.21745V9.20757V9.19779V9.18811V9.17851V9.16901V9.15961V9.1503V9.14108V9.13196V9.12294V9.11401V9.10518V9.09645V9.08781V9.07927V9.07084V9.0625V9.05426V9.04612V9.03809V9.03015V9.02232V9.01459V9.00696V8.99944V8.99202V8.9847V8.97749V8.97039V8.96339V8.95649V8.9497V8.94303V8.93645V8.92999V8.92363V8.91739V8.91125V8.90523V8.89931V8.89351V8.88781V8.88223V8.87676V8.87141V8.86617V8.86104V8.85603V8.85113V8.84634V8.84168V8.83713V8.83269V8.82838V8.82418V8.8201V8.81614V8.81229V8.80857V8.80497V8.80149V8.79813V8.79489V8.79178V8.78878V8.78591V8.78317V8.78054V8.77805V8.77567V8.77343V8.7713V8.76931V8.76744V8.7657V8.76409C14.0094 8.6594 14.0442 8.57019 14.1069 8.50708C14.1697 8.44396 14.2584 8.4089 14.3625 8.4089C14.4667 8.4089 14.5554 8.44396 14.6182 8.50708C14.6809 8.57017 14.7156 8.65932 14.7157 8.76395M13.9766 20.9731H14.0016H14.009H13.9766ZM14.7157 8.76395C14.7157 8.764 14.7157 8.76405 14.7157 8.76409H14.6907M14.7157 8.76395C14.7157 8.76389 14.7157 8.76383 14.7157 8.76377L14.6907 8.76409M14.6907 8.76409C14.6907 8.56598 14.5594 8.4339 14.3625 8.4339C14.1657 8.4339 14.0344 8.56598 14.0344 8.76409V15.574L14.8547 14.1131C14.6769 13.9541 14.6776 13.9028 14.6919 12.7695C14.7013 12.0209 14.7168 10.8001 14.6907 8.76409ZM9.28442 14.8413V20.9811C9.28442 21.8202 9.98453 22.5249 10.8188 22.5249C11.3085 22.5249 11.7021 22.2998 11.999 21.9462C12.2675 22.3009 12.6928 22.5249 13.1813 22.5249C14.0156 22.5249 14.7157 21.8202 14.7157 20.9811V19.6853H18.1032C18.4781 19.6853 18.7844 19.3768 18.7844 18.9999V16.2594H18.7845L18.7843 16.2573C18.7506 15.8502 18.4463 15.541 18.0704 15.541H14.7157V14.8132C14.9085 14.9009 15.1275 14.9291 15.3176 14.8974C15.9213 14.8295 16.3891 14.2899 16.3891 13.6509V7.97164C16.3891 7.2976 15.8531 6.75796 15.1829 6.75796H8.81724C8.14703 6.75796 7.61099 7.2976 7.61099 7.97164V13.6839C7.61099 14.323 8.07894 14.8627 8.68282 14.9304C8.90583 14.9624 9.09851 14.9033 9.28442 14.8413ZM18.0452 16.2514H18.0454V18.9419H18.041H18.0312H18.0215H18.0117H18.002H17.9923H17.9826H17.9729H17.9632H17.9535H17.9438H17.9342H17.9245H17.9149H17.9053H17.8957H17.886H17.8765H17.8669H17.8573H17.8477H17.8382H17.8286H17.8191H17.8096H17.8001H17.7906H17.7811H17.7716H17.7621H17.7527H17.7432H17.7338H17.7244H17.7149H17.7055H17.6961H17.6867H17.6774H17.668H17.6586H17.6493H17.6399H17.6306H17.6213H17.612H17.6026H17.5934H17.5841H17.5748H17.5655H17.5563H17.547H17.5378H17.5285H17.5193H17.5101H17.5009H17.4917H17.4825H17.4733H17.4642H17.455H17.4458H17.4367H17.4276H17.4184H17.4093H17.4002H17.3911H17.382H17.3729H17.3639H17.3548H17.3457H17.3367H17.3276H17.3186H17.3096H17.3006H17.2915H17.2825H17.2736H17.2646H17.2556H17.2466H17.2377H17.2287H17.2197H17.2108H17.2019H17.193H17.184H17.1751H17.1662H17.1573H17.1484H17.1396H17.1307H17.1218H17.113H17.1041H17.0953H17.0864H17.0776H17.0688H17.06H17.0511H17.0423H17.0335H17.0248H17.016H17.0072H16.9984H16.9897H16.9809H16.9722H16.9634H16.9547H16.946H16.9372H16.9285H16.9198H16.9111H16.9024H16.8937H16.885H16.8764H16.8677H16.859H16.8504H16.8417H16.8331H16.8244H16.8158H16.8071H16.7985H16.7899H16.7813H16.7727H16.7641H16.7555H16.7469H16.7383H16.7297H16.7212H16.7126H16.704H16.6955H16.6869H16.6784H16.6698H16.6613H16.6528H16.6442H16.6357H16.6272H16.6187H16.6102H16.6017H16.5932H16.5847H16.5762H16.5677H16.5592H16.5507H16.5423H16.5338H16.5254H16.5169H16.5084H16.5H16.4916H16.4831H16.4747H16.4663H16.4578H16.4494H16.441H16.4326H16.4242H16.4158H16.4074H16.399H16.3906H16.3822H16.3738H16.3654H16.357H16.3487H16.3403H16.3319H16.3236H16.3152H16.3068H16.2985H16.2901H16.2818H16.2735H16.2651H16.2568H16.2484H16.2401H16.2318H16.2235H16.2151H16.2068H16.1985H16.1902H16.1819H16.1736H16.1653H16.157H16.1487H16.1404H16.1321H16.1238H16.1155H16.1072H16.099H16.0907H16.0824H16.0741H16.0659H16.0576H16.0493H16.0411H16.0328H16.0245H16.0163H16.008H15.9998H15.9915H15.9833H15.975H15.9668H15.9585H15.9503H15.942H15.9338H15.9256H15.9173H15.9091H15.9009H15.8926H15.8844H15.8762H15.8679H15.8597H15.8515H15.8433H15.835H15.8268H15.8186H15.8104H15.8022H15.794H15.7857H15.7775H15.7693H15.7611H15.7529H15.7447H15.7365H15.7283H15.72H15.7118H15.7036H15.6954H15.6872H15.679H15.6708H15.6626H15.6544H15.6462H15.638H15.6298H15.6216H15.6134H15.6052H15.597H15.5888H15.5806H15.5724H15.5642H15.556H15.5477H15.5395H15.5313H15.5231H15.5149H15.5067H15.4985H15.4903H15.4821H15.4739H15.4657H15.4575H15.4493H15.4411H15.4329H15.4247H15.4164H15.4082H15.4H15.3918H15.3836H15.3754H15.3672H15.3589H15.3507H15.3425H15.3343H15.3261H15.3178H15.3096H15.3014H15.2932H15.2849H15.2767H15.2685H15.2602H15.252H15.2438H15.2355H15.2273H15.219H15.2108H15.2026H15.1943H15.1861H15.1778H15.1696H15.1613H15.153H15.1448H15.1365H15.1283H15.12H15.1117H15.1035H15.0952H15.0869H15.0786H15.0704H15.0621H15.0538H15.0455H15.0372H15.0289H15.0206H15.0123H15.004H14.9957H14.9874H14.9791H14.9708H14.9625H14.9542H14.9458H14.9375H14.9292H14.9209H14.9125H14.9042H14.8959H14.8875H14.8792H14.8708H14.8625H14.8541H14.8457H14.8374H14.829H14.8206H14.8123H14.8039H14.7955H14.7871H14.7787H14.7703H14.7619H14.7535H14.7451H14.7367H14.7283H14.7199H14.7115H14.703H14.6946H14.6862H14.6777H14.6693H14.6608H14.6524H14.6439H14.6355H14.627H14.6185H14.6101H14.6016H14.5931H14.5846H14.5761H14.5676H14.5591H14.5506H14.5421H14.5336H14.5251H14.5165H14.508H14.4995H14.4909H14.4824H14.4738H14.4653H14.4567H14.4481H14.4396H14.431H14.4224H14.4138H14.4052H14.3966H14.388H14.3794H14.3708H14.3621H14.3535H14.3449H14.3362H14.3276H14.3189H14.3102H14.3016H14.2929H14.2842H14.2755H14.2669H14.2582H14.2495H14.2407H14.232H14.2233H14.2146H14.2058H14.1971H14.1883H14.1796H14.1708H14.1621H14.1533H14.1445H14.1357H14.1269H14.1181H14.1093H14.1005H14.0917H14.0828H14.074H14.0651H14.0563H14.0474H14.0386H14.0297H14.0208H14.0119H14.003H13.9941H13.9852H13.9763H13.9674H13.9584H13.9495H13.9405H13.9316H13.9226H13.9137H13.9047H13.8957H13.8867H13.8777H13.8687H13.8597H13.8506H13.8416H13.8325H13.8235H13.8144H13.8054H13.7963H13.7872H13.7781H13.769H13.7599H13.7508H13.7417H13.7325H13.7234H13.7142H13.7051H13.6959H13.6867H13.6775H13.6683H13.6657V16.2514H13.6744H13.708H13.7414H13.7747H13.8077H13.8406H13.8734H13.906H13.9384H13.9706H14.0027H14.0346H14.0663H14.0979H14.1293H14.1605H14.1916H14.2225H14.2533H14.2839H14.3143H14.3446H14.3747H14.4047H14.4344H14.4641H14.4935H14.5229H14.552H14.581H14.6098H14.6385H14.667H14.6954H14.7236H14.7517H14.7795H14.8073H14.8349H14.8623H14.8896H14.9167H14.9437H14.9705H14.9972H15.0237H15.0501H15.0763H15.1024H15.1283H15.154H15.1797H15.2051H15.2304H15.2556H15.2806H15.3055H15.3303H15.3548H15.3793H15.4036H15.4277H15.4517H15.4756H15.4993H15.5229H15.5463H15.5696H15.5928H15.6158H15.6387H15.6614H15.684H15.7064H15.7287H15.7509H15.7729H15.7948H15.8166H15.8382H15.8597H15.881H15.9023H15.9233H15.9443H15.9651H15.9857H16.0063H16.0267H16.047H16.0671H16.0871H16.107H16.1267H16.1463H16.1658H16.1852H16.2044H16.2235H16.2425H16.2613H16.28H16.2986H16.317H16.3354H16.3536H16.3717H16.3896H16.4074H16.4251H16.4427H16.4602H16.4775H16.4947H16.5118H16.5288H16.5456H16.5623H16.5789H16.5954H16.6118H16.628H16.6441H16.6602H16.676H16.6918H16.7075H16.723H16.7384H16.7537H16.7689H16.784H16.7989H16.8138H16.8285H16.8431H16.8576H16.872H16.8863H16.9005H16.9145H16.9285H16.9423H16.956H16.9696H16.9831H16.9965H17.0098H17.023H17.0361H17.049H17.0619H17.0746H17.0873H17.0998H17.1123H17.1246H17.1368H17.1489H17.161H17.1729H17.1847H17.1964H17.208H17.2195H17.2309H17.2422H17.2535H17.2646H17.2756H17.2865H17.2973H17.308H17.3186H17.3292H17.3396H17.3499H17.3601H17.3703H17.3803H17.3903H17.4001H17.4099H17.4195H17.4291H17.4386H17.448H17.4573H17.4665H17.4756H17.4846H17.4936H17.5024H17.5112H17.5199H17.5284H17.5369H17.5453H17.5537H17.5619H17.57H17.5781H17.5861H17.594H17.6018H17.6095H17.6171H17.6247H17.6322H17.6396H17.6469H17.6541H17.6613H17.6683H17.6753H17.6822H17.6891H17.6958H17.7025H17.7091H17.7156H17.722H17.7284H17.7347H17.7409H17.747H17.7531H17.7591H17.765H17.7708H17.7766H17.7823H17.7879H17.7934H17.7989H17.8043H17.8096H17.8149H17.8201H17.8252H17.8303H17.8353H17.8402H17.845H17.8498H17.8545H17.8592H17.8638H17.8683H17.8727H17.8771H17.8814H17.8857H17.8899H17.894H17.8981H17.9021H17.906H17.9099H17.9138H17.9175H17.9212H17.9249H17.9284H17.932H17.9354H17.9388H17.9422H17.9455H17.9487H17.9519H17.955H17.9581H17.9611H17.964H17.9669H17.9698H17.9726H17.9753H17.978H17.9807H17.9832H17.9858H17.9883H17.9907H17.9931H17.9954H17.9977H17.9999H18.0021H18.0042H18.0063H18.0084H18.0104H18.0123H18.0142H18.0161H18.0179H18.0197H18.0214H18.0222H18.0222H18.0222H18.0222H18.0223H18.0223H18.0223H18.0224H18.0225H18.0227H18.0227H18.0228H18.0229H18.023H18.0231H18.0231H18.0232H18.0233H18.0234H18.0235H18.0236H18.0238H18.0239H18.0241H18.0241H18.0244H18.0244H18.0247H18.0247H18.0248H18.025H18.0252H18.0253H18.0256H18.0256H18.026H18.026H18.0263H18.0263H18.0265H18.0267H18.027H18.0271H18.0275H18.0275H18.0279H18.0279H18.0281H18.0283H18.0287H18.0288H18.0292H18.0293H18.0294H18.0296H18.03H18.0301H18.0306H18.0307H18.0309H18.0311H18.0314H18.0315H18.032H18.0322H18.0323H18.0325H18.0329H18.033H18.0336H18.0337H18.0338H18.0341H18.0346H18.0346H18.035H18.0351H18.0355H18.0357H18.0362H18.0363H18.0364H18.0368H18.0373H18.0374H18.0376H18.0379H18.0384H18.0388H18.039H18.0394H18.0395H18.04H18.0401H18.0405H18.0406H18.0412H18.0412H18.0416H18.0418H18.0423H18.0423H18.0428H18.0429H18.0433H18.0434H18.044H18.044H18.0444H18.0446H18.0451H18.0452Z" fill="#0A0A0D" stroke="black" stroke-width="0.05"/>
<path d="M11.9997 6.21368C13.2934 6.21368 14.3544 5.14573 14.3544 3.84434C14.3544 2.54294 13.2934 1.475 11.9997 1.475C10.7061 1.475 9.64504 2.54294 9.64504 3.84434C9.64504 5.14573 10.7061 6.21368 11.9997 6.21368ZM11.9997 2.18538C12.9045 2.18538 13.6482 2.93347 13.6482 3.84434C13.6482 4.75521 12.9045 5.5033 11.9997 5.5033C11.0949 5.5033 10.3513 4.75521 10.3513 3.84434C10.3513 2.93347 11.0949 2.18538 11.9997 2.18538Z" fill="#0A0A0D" stroke="black" stroke-width="0.05"/>
<path d="M22.4896 4.13035C22.455 4.06063 22.3871 3.99177 22.3178 3.95579C22.2961 3.93582 22.2669 3.92705 22.2417 3.92283C22.215 3.91836 22.1887 3.91836 22.1724 3.91836L22.1719 3.91836H21.0891C20.985 3.91836 20.8962 3.95341 20.8335 4.01654C20.7708 4.07965 20.736 4.16886 20.736 4.27355C20.736 4.37824 20.7708 4.46744 20.8335 4.53056C20.8962 4.59368 20.985 4.62874 21.0891 4.62874H21.3243L17.987 7.98706C17.8461 8.12888 17.8461 8.34274 17.987 8.48457C18.128 8.62648 18.3408 8.62648 18.4819 8.48457L21.8188 5.12663V5.36317C21.8188 5.46786 21.8536 5.55707 21.9163 5.62018C21.979 5.68331 22.0678 5.71836 22.1719 5.71836C22.2761 5.71836 22.3648 5.68331 22.4276 5.62018C22.4903 5.55707 22.5251 5.46786 22.5251 5.36317V4.27355V4.27306C22.5251 4.25663 22.5251 4.23807 22.5205 4.21502C22.5159 4.19175 22.5068 4.16487 22.4896 4.13035Z" fill="#0A0A0D" stroke="black" stroke-width="0.05"/>
<path d="M22.1719 13.7251C22.0678 13.7251 21.979 13.7601 21.9163 13.8233C21.8536 13.8864 21.8188 13.9756 21.8188 14.0803V14.3168L18.4819 10.9589C18.3408 10.817 18.128 10.817 17.987 10.9589C17.8461 11.1007 17.8461 11.3146 17.987 11.4564L21.3243 14.8147H21.0891C20.985 14.8147 20.8962 14.8498 20.8335 14.9129C20.7708 14.976 20.736 15.0652 20.736 15.1699C20.736 15.2746 20.7708 15.3638 20.8335 15.4269C20.8962 15.49 20.985 15.5251 21.0891 15.5251H22.1719H22.1724C22.1887 15.5251 22.215 15.5251 22.2417 15.5206C22.2668 15.5164 22.2961 15.5076 22.3178 15.4877C22.3848 15.4534 22.4365 15.4101 22.4717 15.3571C22.5075 15.303 22.5251 15.2403 22.5251 15.1699V14.0803C22.5251 13.9032 22.3844 13.7251 22.1719 13.7251Z" fill="#0A0A0D" stroke="black" stroke-width="0.05"/>
<path d="M2.18125 5.36305V5.1265L5.5182 8.48444C5.65923 8.62636 5.87202 8.62636 6.01305 8.48444C6.15398 8.34262 6.15398 8.12876 6.01305 7.98694L2.67571 4.62861H2.91094C3.0151 4.62861 3.10383 4.59356 3.16656 4.53043C3.22928 4.46732 3.26406 4.37812 3.26406 4.27343C3.26406 4.16874 3.22928 4.07953 3.16656 4.01642C3.10383 3.95329 3.0151 3.91824 2.91094 3.91824H2.9071H2.90329H2.89949H2.89572H2.89196H2.88823H2.88451H2.88082H2.87714H2.87349H2.86985H2.86623H2.86263H2.85906H2.8555H2.85196H2.84843H2.84493H2.84145H2.83798H2.83454H2.83111H2.8277H2.82431H2.82094H2.81758H2.81425H2.81093H2.80763H2.80435H2.80109H2.79784H2.79461H2.7914H2.78821H2.78503H2.78188H2.77874H2.77561H2.77251H2.76942H2.76635H2.76329H2.76025H2.75723H2.75423H2.75124H2.74827H2.74531H2.74237H2.73945H2.73655H2.73366H2.73078H2.72792H2.72508H2.72226H2.71945H2.71665H2.71387H2.71111H2.70836H2.70563H2.70291H2.70021H2.69752H2.69485H2.69219H2.68955H2.68692H2.68431H2.68171H2.67913H2.67656H2.67401H2.67147H2.66894H2.66643H2.66393H2.66145H2.65898H2.65652H2.65408H2.65165H2.64924H2.64684H2.64445H2.64208H2.63972H2.63737H2.63503H2.63271H2.6304H2.62811H2.62583H2.62356H2.6213H2.61905H2.61682H2.6146H2.61239H2.6102H2.60802H2.60585H2.60369H2.60154H2.59941H2.59728H2.59517H2.59307H2.59098H2.58891H2.58684H2.58479H2.58274H2.58071H2.57869H2.57668H2.57469H2.5727H2.57072H2.56875H2.5668H2.56485H2.56292H2.561H2.55908H2.55718H2.55528H2.5534H2.55153H2.54966H2.54781H2.54597H2.54413H2.54231H2.54049H2.53869H2.53689H2.5351H2.53332H2.53156H2.5298H2.52804H2.5263H2.52457H2.52284H2.52113H2.51942H2.51772H2.51603H2.51435H2.51268H2.51101H2.50935H2.5077H2.50606H2.50443H2.5028H2.50118H2.49957H2.49797H2.49637H2.49478H2.4932H2.49163H2.49006H2.4885H2.48695H2.4854H2.48386H2.48233H2.4808H2.47929H2.47777H2.47627H2.47477H2.47327H2.47178H2.4703H2.46883H2.46736H2.46589H2.46444H2.46298H2.46154H2.4601H2.45866H2.45723H2.45581H2.45439H2.45297H2.45156H2.45016H2.44876H2.44736H2.44597H2.44459H2.44321H2.44183H2.44046H2.43909H2.43773H2.43637H2.43502H2.43367H2.43232H2.43098H2.42964H2.4283H2.42697H2.42564H2.42432H2.423H2.42168H2.42036H2.41905H2.41774H2.41644H2.41514H2.41384H2.41254H2.41125H2.40995H2.40867H2.40738H2.40609H2.40481H2.40353H2.40226H2.40098H2.39971H2.39843H2.39717H2.3959H2.39463H2.39337H2.3921H2.39084H2.38958H2.38832H2.38706H2.38581H2.38455H2.3833H2.38204H2.38079H2.37954H2.37828H2.37703H2.37578H2.37453H2.37328H2.37203H2.37078H2.36953H2.36828H2.36703H2.36578H2.36453H2.36328H2.36203H2.36078H2.35953H2.35827H2.35702H2.35577H2.35451H2.35326H2.352H2.35074H2.34948H2.34822H2.34696H2.3457H2.34443H2.34317H2.3419H2.34063H2.33936H2.33808H2.33681H2.33553H2.33425H2.33297H2.33168H2.3304H2.32911H2.32782H2.32652H2.32523H2.32393H2.32262H2.32132H2.32001H2.3187H2.31738H2.31607H2.31474H2.31342H2.31209H2.31076H2.30942H2.30809H2.30674H2.3054H2.30405H2.30269H2.30133H2.29997H2.2986H2.29723H2.29585H2.29447H2.29309H2.2917H2.2903H2.2889H2.2875H2.28609H2.28468H2.28326H2.28183H2.2804H2.27897H2.27752H2.27608H2.27463H2.27317H2.2717H2.27023H2.26876H2.26728H2.26579H2.2643H2.2628H2.26129H2.25978H2.25826H2.25673H2.2552H2.25366H2.25211H2.25056H2.249H2.24743H2.24586H2.24428H2.24269H2.24109H2.23949H2.23788H2.23626H2.23464H2.233H2.23136H2.22971H2.22805H2.22639H2.22471H2.22303H2.22134H2.21964H2.21793H2.21622H2.21449H2.21276H2.21102H2.20927H2.20751H2.20574H2.20396H2.20217H2.20038H2.19857H2.19676H2.19493H2.1931H2.19125H2.1894H2.18754H2.18566H2.18378H2.18188H2.17998H2.17807H2.17614H2.17421H2.17226H2.17031H2.16834H2.16636H2.16438H2.16238H2.16037H2.15835H2.15632H2.15427H2.15222H2.15016H2.14808H2.14599H2.14389H2.14178H2.13966H2.13752H2.13538H2.13322H2.13105H2.12886H2.12667H2.12446H2.12224H2.12001H2.11776H2.11551H2.11324H2.11095H2.10866H2.10635H2.10403H2.10169H2.09935H2.09699H2.09461H2.09222H2.08982H2.08741H2.08498H2.08254H2.08008H2.07761H2.07513H2.07263H2.07012H2.0676H2.06505H2.0625H2.05993H2.05735H2.05475H2.05214H2.04951H2.04687H2.04421H2.04154H2.03885H2.03615H2.03343H2.0307H2.02795H2.02519H2.02241H2.01962H2.01681H2.01398H2.01114H2.00828H2.00541H2.00252H1.99961H1.99669H1.99375H1.9908H1.98782H1.98484H1.98183H1.97881H1.97577H1.97272H1.96965H1.96656H1.96345H1.96033H1.95719H1.95403H1.95085H1.94766H1.94445H1.94122H1.93798H1.93471H1.93143H1.92813H1.92481H1.92148H1.91812H1.91475H1.91136H1.90795H1.90453H1.90108H1.89761H1.89413H1.89063H1.88711H1.88357H1.88001H1.87643H1.87283H1.86921H1.86558H1.86192H1.85824H1.85455H1.85083H1.8471H1.84334H1.83957H1.83577H1.83196H1.82812C1.6157 3.91824 1.475 4.09633 1.475 4.27343V5.36305C1.475 5.46774 1.50978 5.55695 1.5725 5.62006C1.63523 5.68318 1.72396 5.71824 1.82812 5.71824C1.93229 5.71824 2.02102 5.68318 2.08375 5.62006C2.14647 5.55695 2.18125 5.46774 2.18125 5.36305Z" fill="#0A0A0D" stroke="black" stroke-width="0.05"/>
<path d="M5.5182 10.9589L2.18125 14.3168V14.0803C2.18125 13.9756 2.14647 13.8864 2.08375 13.8233C2.02102 13.7602 1.93229 13.7251 1.82812 13.7251C1.72396 13.7251 1.63523 13.7602 1.5725 13.8233C1.50978 13.8864 1.475 13.9756 1.475 14.0803V15.1699C1.475 15.347 1.6157 15.5251 1.82812 15.5251H2.91094C3.0151 15.5251 3.10383 15.4901 3.16656 15.4269C3.22928 15.3638 3.26406 15.2746 3.26406 15.1699C3.26406 15.0652 3.22928 14.976 3.16656 14.9129C3.10383 14.8498 3.0151 14.8147 2.91094 14.8147H2.67571L6.01305 11.4564C6.15398 11.3146 6.15398 11.1007 6.01305 10.9589C5.87202 10.817 5.65923 10.817 5.5182 10.9589Z" fill="#0A0A0D" stroke="black" stroke-width="0.05"/>
<path d="M16.1999 16.9938H15.5436C15.4395 16.9938 15.3507 17.0289 15.288 17.092C15.2253 17.1551 15.1905 17.2443 15.1905 17.349C15.1905 17.4537 15.2253 17.5429 15.288 17.606C15.3507 17.6691 15.4395 17.7042 15.5436 17.7042H16.1999C16.3041 17.7042 16.3928 17.6691 16.4555 17.606C16.5182 17.5429 16.553 17.4537 16.553 17.349C16.553 17.1356 16.3763 16.9938 16.1999 16.9938Z" fill="#0A0A0D" stroke="black" stroke-width="0.05"/>
</svg>
