<svg width="24" height="24" viewBox="0 0 24 24" fill="none" xmlns="http://www.w3.org/2000/svg">
<path d="M11.0354 3C12.225 3 13.2916 3.49227 14.071 4.25119C14.8505 5.03061 15.3222 6.0972 15.3222 7.28685C15.3222 8.47651 14.8505 9.54309 14.071 10.3225C13.7223 10.6712 13.3121 10.9584 12.8404 11.184C13.3942 11.3276 13.9275 11.5532 14.4197 11.8198C14.6453 11.9429 14.7274 12.2301 14.6043 12.4557C14.4813 12.6813 14.1941 12.7634 13.9685 12.6403C13.5172 12.3942 13.0455 12.2096 12.5327 12.0865C12.0404 11.9634 11.5276 11.9019 11.0149 11.9019C9.33293 11.9019 7.81509 12.5788 6.68698 13.7069C5.57937 14.8145 4.88198 16.3323 4.88198 18.0142V18.8552C4.88198 19.0193 4.94352 19.1629 5.04607 19.2654C5.14863 19.368 5.31272 19.4295 5.49732 19.4295H11.3841C11.6507 19.4295 11.8558 19.6346 11.8558 19.9013C11.8558 20.1679 11.6507 20.373 11.3841 20.373H5.53834C5.10761 20.373 4.71789 20.2089 4.45125 19.9218C4.16409 19.6551 4 19.2654 4 18.8347V17.9937C4 16.0657 4.79994 14.2812 6.07164 13.0095C6.93311 12.148 8.02021 11.5122 9.23037 11.184C8.77912 10.9789 8.3689 10.6712 8.02021 10.3225C7.24078 9.54309 6.76902 8.47651 6.76902 7.28685C6.76902 6.0972 7.24078 5.03061 8.02021 4.25119C8.77912 3.49227 9.86622 3 11.0354 3ZM16.2042 12.9275L17.3118 15.1222L19.7321 15.4914C19.9783 15.5324 20.1629 15.7785 20.1219 16.0247C20.1013 16.1272 20.0603 16.2093 19.9783 16.2913L18.2348 18.0348L18.6245 20.4551C18.6656 20.7012 18.481 20.9474 18.2348 20.9884C18.1323 21.0089 18.0297 20.9884 17.9271 20.9268L15.753 19.8192L13.5582 20.9474C13.3326 21.0704 13.0455 20.9679 12.9224 20.7422C12.8814 20.6397 12.8609 20.5576 12.8814 20.4551L13.2916 18.0348L11.5481 16.2913C11.3635 16.1067 11.3635 15.8195 11.5481 15.6349C11.6302 15.5529 11.7327 15.5119 11.8353 15.4914L14.2556 15.1222L15.3632 12.9275C15.4863 12.7018 15.753 12.5993 15.9991 12.7223C16.0811 12.7634 16.1427 12.8249 16.2042 12.9275ZM16.5734 15.758L15.7735 14.1786L14.9735 15.758C14.912 15.8811 14.7889 15.9836 14.6248 16.0041L12.8609 16.2708L14.1326 17.522C14.2351 17.6245 14.2967 17.7681 14.2761 17.9322L13.989 19.6962L15.5684 18.8757C15.6914 18.8142 15.8555 18.8142 15.9991 18.8757L17.5785 19.6962L17.2913 17.9527C17.2708 17.8091 17.3118 17.645 17.4349 17.5425L18.6861 16.2913L16.9631 16.0247C16.799 16.0041 16.6554 15.9016 16.5734 15.758ZM13.3942 4.92806C12.7993 4.33323 11.9584 3.94352 11.0354 3.94352C10.1124 3.94352 9.27139 4.31272 8.67657 4.92806C8.08174 5.52289 7.69203 6.36385 7.69203 7.28685C7.69203 8.20986 8.06123 9.05082 8.67657 9.64565C9.27139 10.2405 10.1124 10.6302 11.0354 10.6302C11.9584 10.6302 12.7993 10.261 13.3942 9.64565C13.989 9.05082 14.3787 8.20986 14.3787 7.28685C14.3787 6.36385 14.0095 5.52289 13.3942 4.92806Z" fill="#0A0A0D"/>
</svg>
