<svg width="24" height="24" viewBox="0 0 24 24" fill="none" xmlns="http://www.w3.org/2000/svg">
<mask id="path-1-outside-1_493_387" maskUnits="userSpaceOnUse" x="0.5" y="1" width="23" height="22" fill="black">
<rect fill="white" x="0.5" y="1" width="23" height="22"/>
<path d="M6.08996 17.4164H3.00451V21.2687H6.0854V17.4164H6.08996ZM6.09453 21.7297H2.77629C2.64849 21.7297 2.54808 21.6293 2.54808 21.5015V17.1928C2.54808 17.065 2.64849 16.9646 2.77629 16.9646H6.0854C6.0854 16.6725 6.29079 16.4625 6.56009 16.4625H8.60489C8.86505 16.4625 9.07957 16.677 9.07957 16.9372V17.0239H9.97873L11.9596 15.8646C12.0007 15.8418 12.0464 15.8281 12.092 15.8326L15.7845 16.1156C16.4828 16.1704 17.0123 16.3119 17.2953 16.5766C17.4915 16.7638 17.5783 16.9874 17.5235 17.2613L20.7322 15.6592C21.4899 15.2804 22.5442 15.6272 22.4986 16.3393C22.4849 16.604 22.3069 16.8961 21.8915 17.1837L15.6932 21.4924C15.6476 21.5243 15.5974 21.538 15.5472 21.5334L10.4078 21.5289L9.07957 21.6019C9.07957 21.7571 9.05219 21.8758 8.93808 21.9853C8.85136 22.072 8.73269 22.1268 8.60489 22.1268H6.56009C6.32731 22.1268 6.13104 21.9533 6.09453 21.7297ZM13.4704 18.3339C13.1737 18.3613 13.1281 17.9094 13.4293 17.882L16.9073 17.5442C17.1081 17.2384 17.1173 17.033 16.9803 16.9052C16.7841 16.7181 16.3459 16.6131 15.748 16.5675L12.124 16.2891L10.1522 17.4438C10.1202 17.4621 10.0791 17.4758 10.0381 17.4758L9.07957 17.4803V21.1455L10.3804 21.0724H10.3941L15.4924 21.077L21.6268 16.8094C22.0148 16.5401 22.2293 16.2343 21.8231 16.0426C21.5857 15.9285 21.2297 15.9194 20.933 16.0654L17.131 17.9642C17.1036 17.9779 17.0716 17.987 17.0397 17.987L13.4704 18.3339ZM8.60489 16.9189H6.56009L6.54183 16.9372V21.6567L6.56009 21.6749H8.60489L8.62314 21.6567V16.9372L8.60489 16.9189ZM21.0608 12.5418H19.5546C19.2534 12.5418 19.2534 12.0854 19.5546 12.0854H21.0608L20.7048 11.88C20.4446 11.7294 20.6729 11.3368 20.933 11.4874L22.0239 12.1173C22.1745 12.204 22.1745 12.4231 22.0193 12.5098L20.933 13.1397C20.6729 13.2903 20.4446 12.8932 20.7048 12.7472L21.0608 12.5418ZM2.58003 12.0854H4.08624C4.38749 12.0854 4.38749 12.5418 4.08624 12.5418H2.58003L2.93148 12.7472C3.19164 12.8978 2.96343 13.2903 2.70327 13.1397L1.6124 12.5098C1.46178 12.4231 1.46178 12.204 1.61697 12.1128L2.70327 11.4829C2.96343 11.3323 3.19164 11.7293 2.93148 11.8754L2.58003 12.0854ZM5.45097 5.61777L6.51444 6.68125C6.7244 6.89121 6.4049 7.21527 6.19038 7.00531L5.1269 5.94184L5.23188 6.33436C5.30947 6.62191 4.8713 6.74059 4.79371 6.45304L4.46964 5.23437C4.424 5.06549 4.57919 4.91031 4.75263 4.95595L5.96673 5.28002C6.25428 5.35761 6.14017 5.79578 5.84806 5.71819L5.45097 5.61777ZM12.0509 3.07547V4.58168C12.0509 4.88292 11.5945 4.88292 11.5945 4.58168V3.07547L11.3891 3.43148C11.2385 3.69164 10.8459 3.46343 10.9966 3.20327L11.6219 2.1124C11.7086 1.96178 11.9277 1.96178 12.019 2.11697L12.6488 3.20327C12.7995 3.46343 12.4024 3.69164 12.2563 3.43148L12.0509 3.07547ZM18.5139 5.94184L17.4505 7.00531C17.2405 7.21527 16.9164 6.89577 17.1264 6.68125L18.1899 5.61777L17.7974 5.72275C17.5098 5.80034 17.3911 5.36217 17.6787 5.28458L18.8973 4.96052C19.0662 4.91487 19.2214 5.07006 19.1758 5.2435L18.8517 6.4576C18.7741 6.74515 18.3359 6.63104 18.4135 6.33893L18.5139 5.94184ZM12.0235 6.63561L13.2513 9.10945L15.9853 9.51111C16.1816 9.53849 16.2455 9.77584 16.104 9.9082L14.1368 11.8298L14.5978 14.5546C14.6297 14.7326 14.438 14.8878 14.2555 14.7874L11.8227 13.514L9.37625 14.7965C9.20737 14.8833 9.01567 14.7418 9.04762 14.5592L9.50861 11.8343L7.52771 9.89907C7.39535 9.76671 7.46838 9.53849 7.65551 9.51111L10.3895 9.10945L11.6173 6.63561C11.6995 6.46673 11.9414 6.46673 12.0235 6.63561ZM12.8999 9.41526L11.8227 7.24722L10.7501 9.40613C10.7182 9.47459 10.6542 9.52936 10.5721 9.53849L8.17584 9.88994L9.90114 11.5787C9.95591 11.6289 9.98786 11.7065 9.97417 11.7841L9.56795 14.1758L11.7132 13.053C11.7771 13.021 11.8547 13.0165 11.9231 13.053L14.0729 14.1758L13.6667 11.7841C13.653 11.7157 13.6758 11.6381 13.7306 11.5833L15.4604 9.88994L13.0642 9.53849C12.9957 9.52936 12.9318 9.48829 12.8999 9.41526Z"/>
</mask>
<path d="M6.08996 17.4164H3.00451V21.2687H6.0854V17.4164H6.08996ZM6.09453 21.7297H2.77629C2.64849 21.7297 2.54808 21.6293 2.54808 21.5015V17.1928C2.54808 17.065 2.64849 16.9646 2.77629 16.9646H6.0854C6.0854 16.6725 6.29079 16.4625 6.56009 16.4625H8.60489C8.86505 16.4625 9.07957 16.677 9.07957 16.9372V17.0239H9.97873L11.9596 15.8646C12.0007 15.8418 12.0464 15.8281 12.092 15.8326L15.7845 16.1156C16.4828 16.1704 17.0123 16.3119 17.2953 16.5766C17.4915 16.7638 17.5783 16.9874 17.5235 17.2613L20.7322 15.6592C21.4899 15.2804 22.5442 15.6272 22.4986 16.3393C22.4849 16.604 22.3069 16.8961 21.8915 17.1837L15.6932 21.4924C15.6476 21.5243 15.5974 21.538 15.5472 21.5334L10.4078 21.5289L9.07957 21.6019C9.07957 21.7571 9.05219 21.8758 8.93808 21.9853C8.85136 22.072 8.73269 22.1268 8.60489 22.1268H6.56009C6.32731 22.1268 6.13104 21.9533 6.09453 21.7297ZM13.4704 18.3339C13.1737 18.3613 13.1281 17.9094 13.4293 17.882L16.9073 17.5442C17.1081 17.2384 17.1173 17.033 16.9803 16.9052C16.7841 16.7181 16.3459 16.6131 15.748 16.5675L12.124 16.2891L10.1522 17.4438C10.1202 17.4621 10.0791 17.4758 10.0381 17.4758L9.07957 17.4803V21.1455L10.3804 21.0724H10.3941L15.4924 21.077L21.6268 16.8094C22.0148 16.5401 22.2293 16.2343 21.8231 16.0426C21.5857 15.9285 21.2297 15.9194 20.933 16.0654L17.131 17.9642C17.1036 17.9779 17.0716 17.987 17.0397 17.987L13.4704 18.3339ZM8.60489 16.9189H6.56009L6.54183 16.9372V21.6567L6.56009 21.6749H8.60489L8.62314 21.6567V16.9372L8.60489 16.9189ZM21.0608 12.5418H19.5546C19.2534 12.5418 19.2534 12.0854 19.5546 12.0854H21.0608L20.7048 11.88C20.4446 11.7294 20.6729 11.3368 20.933 11.4874L22.0239 12.1173C22.1745 12.204 22.1745 12.4231 22.0193 12.5098L20.933 13.1397C20.6729 13.2903 20.4446 12.8932 20.7048 12.7472L21.0608 12.5418ZM2.58003 12.0854H4.08624C4.38749 12.0854 4.38749 12.5418 4.08624 12.5418H2.58003L2.93148 12.7472C3.19164 12.8978 2.96343 13.2903 2.70327 13.1397L1.6124 12.5098C1.46178 12.4231 1.46178 12.204 1.61697 12.1128L2.70327 11.4829C2.96343 11.3323 3.19164 11.7293 2.93148 11.8754L2.58003 12.0854ZM5.45097 5.61777L6.51444 6.68125C6.7244 6.89121 6.4049 7.21527 6.19038 7.00531L5.1269 5.94184L5.23188 6.33436C5.30947 6.62191 4.8713 6.74059 4.79371 6.45304L4.46964 5.23437C4.424 5.06549 4.57919 4.91031 4.75263 4.95595L5.96673 5.28002C6.25428 5.35761 6.14017 5.79578 5.84806 5.71819L5.45097 5.61777ZM12.0509 3.07547V4.58168C12.0509 4.88292 11.5945 4.88292 11.5945 4.58168V3.07547L11.3891 3.43148C11.2385 3.69164 10.8459 3.46343 10.9966 3.20327L11.6219 2.1124C11.7086 1.96178 11.9277 1.96178 12.019 2.11697L12.6488 3.20327C12.7995 3.46343 12.4024 3.69164 12.2563 3.43148L12.0509 3.07547ZM18.5139 5.94184L17.4505 7.00531C17.2405 7.21527 16.9164 6.89577 17.1264 6.68125L18.1899 5.61777L17.7974 5.72275C17.5098 5.80034 17.3911 5.36217 17.6787 5.28458L18.8973 4.96052C19.0662 4.91487 19.2214 5.07006 19.1758 5.2435L18.8517 6.4576C18.7741 6.74515 18.3359 6.63104 18.4135 6.33893L18.5139 5.94184ZM12.0235 6.63561L13.2513 9.10945L15.9853 9.51111C16.1816 9.53849 16.2455 9.77584 16.104 9.9082L14.1368 11.8298L14.5978 14.5546C14.6297 14.7326 14.438 14.8878 14.2555 14.7874L11.8227 13.514L9.37625 14.7965C9.20737 14.8833 9.01567 14.7418 9.04762 14.5592L9.50861 11.8343L7.52771 9.89907C7.39535 9.76671 7.46838 9.53849 7.65551 9.51111L10.3895 9.10945L11.6173 6.63561C11.6995 6.46673 11.9414 6.46673 12.0235 6.63561ZM12.8999 9.41526L11.8227 7.24722L10.7501 9.40613C10.7182 9.47459 10.6542 9.52936 10.5721 9.53849L8.17584 9.88994L9.90114 11.5787C9.95591 11.6289 9.98786 11.7065 9.97417 11.7841L9.56795 14.1758L11.7132 13.053C11.7771 13.021 11.8547 13.0165 11.9231 13.053L14.0729 14.1758L13.6667 11.7841C13.653 11.7157 13.6758 11.6381 13.7306 11.5833L15.4604 9.88994L13.0642 9.53849C12.9957 9.52936 12.9318 9.48829 12.8999 9.41526Z" fill="#0A0A0D"/>
<path d="M6.08996 17.4164H3.00451V21.2687H6.0854V17.4164H6.08996ZM6.09453 21.7297H2.77629C2.64849 21.7297 2.54808 21.6293 2.54808 21.5015V17.1928C2.54808 17.065 2.64849 16.9646 2.77629 16.9646H6.0854C6.0854 16.6725 6.29079 16.4625 6.56009 16.4625H8.60489C8.86505 16.4625 9.07957 16.677 9.07957 16.9372V17.0239H9.97873L11.9596 15.8646C12.0007 15.8418 12.0464 15.8281 12.092 15.8326L15.7845 16.1156C16.4828 16.1704 17.0123 16.3119 17.2953 16.5766C17.4915 16.7638 17.5783 16.9874 17.5235 17.2613L20.7322 15.6592C21.4899 15.2804 22.5442 15.6272 22.4986 16.3393C22.4849 16.604 22.3069 16.8961 21.8915 17.1837L15.6932 21.4924C15.6476 21.5243 15.5974 21.538 15.5472 21.5334L10.4078 21.5289L9.07957 21.6019C9.07957 21.7571 9.05219 21.8758 8.93808 21.9853C8.85136 22.072 8.73269 22.1268 8.60489 22.1268H6.56009C6.32731 22.1268 6.13104 21.9533 6.09453 21.7297ZM13.4704 18.3339C13.1737 18.3613 13.1281 17.9094 13.4293 17.882L16.9073 17.5442C17.1081 17.2384 17.1173 17.033 16.9803 16.9052C16.7841 16.7181 16.3459 16.6131 15.748 16.5675L12.124 16.2891L10.1522 17.4438C10.1202 17.4621 10.0791 17.4758 10.0381 17.4758L9.07957 17.4803V21.1455L10.3804 21.0724H10.3941L15.4924 21.077L21.6268 16.8094C22.0148 16.5401 22.2293 16.2343 21.8231 16.0426C21.5857 15.9285 21.2297 15.9194 20.933 16.0654L17.131 17.9642C17.1036 17.9779 17.0716 17.987 17.0397 17.987L13.4704 18.3339ZM8.60489 16.9189H6.56009L6.54183 16.9372V21.6567L6.56009 21.6749H8.60489L8.62314 21.6567V16.9372L8.60489 16.9189ZM21.0608 12.5418H19.5546C19.2534 12.5418 19.2534 12.0854 19.5546 12.0854H21.0608L20.7048 11.88C20.4446 11.7294 20.6729 11.3368 20.933 11.4874L22.0239 12.1173C22.1745 12.204 22.1745 12.4231 22.0193 12.5098L20.933 13.1397C20.6729 13.2903 20.4446 12.8932 20.7048 12.7472L21.0608 12.5418ZM2.58003 12.0854H4.08624C4.38749 12.0854 4.38749 12.5418 4.08624 12.5418H2.58003L2.93148 12.7472C3.19164 12.8978 2.96343 13.2903 2.70327 13.1397L1.6124 12.5098C1.46178 12.4231 1.46178 12.204 1.61697 12.1128L2.70327 11.4829C2.96343 11.3323 3.19164 11.7293 2.93148 11.8754L2.58003 12.0854ZM5.45097 5.61777L6.51444 6.68125C6.7244 6.89121 6.4049 7.21527 6.19038 7.00531L5.1269 5.94184L5.23188 6.33436C5.30947 6.62191 4.8713 6.74059 4.79371 6.45304L4.46964 5.23437C4.424 5.06549 4.57919 4.91031 4.75263 4.95595L5.96673 5.28002C6.25428 5.35761 6.14017 5.79578 5.84806 5.71819L5.45097 5.61777ZM12.0509 3.07547V4.58168C12.0509 4.88292 11.5945 4.88292 11.5945 4.58168V3.07547L11.3891 3.43148C11.2385 3.69164 10.8459 3.46343 10.9966 3.20327L11.6219 2.1124C11.7086 1.96178 11.9277 1.96178 12.019 2.11697L12.6488 3.20327C12.7995 3.46343 12.4024 3.69164 12.2563 3.43148L12.0509 3.07547ZM18.5139 5.94184L17.4505 7.00531C17.2405 7.21527 16.9164 6.89577 17.1264 6.68125L18.1899 5.61777L17.7974 5.72275C17.5098 5.80034 17.3911 5.36217 17.6787 5.28458L18.8973 4.96052C19.0662 4.91487 19.2214 5.07006 19.1758 5.2435L18.8517 6.4576C18.7741 6.74515 18.3359 6.63104 18.4135 6.33893L18.5139 5.94184ZM12.0235 6.63561L13.2513 9.10945L15.9853 9.51111C16.1816 9.53849 16.2455 9.77584 16.104 9.9082L14.1368 11.8298L14.5978 14.5546C14.6297 14.7326 14.438 14.8878 14.2555 14.7874L11.8227 13.514L9.37625 14.7965C9.20737 14.8833 9.01567 14.7418 9.04762 14.5592L9.50861 11.8343L7.52771 9.89907C7.39535 9.76671 7.46838 9.53849 7.65551 9.51111L10.3895 9.10945L11.6173 6.63561C11.6995 6.46673 11.9414 6.46673 12.0235 6.63561ZM12.8999 9.41526L11.8227 7.24722L10.7501 9.40613C10.7182 9.47459 10.6542 9.52936 10.5721 9.53849L8.17584 9.88994L9.90114 11.5787C9.95591 11.6289 9.98786 11.7065 9.97417 11.7841L9.56795 14.1758L11.7132 13.053C11.7771 13.021 11.8547 13.0165 11.9231 13.053L14.0729 14.1758L13.6667 11.7841C13.653 11.7157 13.6758 11.6381 13.7306 11.5833L15.4604 9.88994L13.0642 9.53849C12.9957 9.52936 12.9318 9.48829 12.8999 9.41526Z" stroke="#0A0A0D" stroke-width="0.32" mask="url(#path-1-outside-1_493_387)"/>
</svg>
