<svg width="24" height="24" viewBox="0 0 24 24" fill="none" xmlns="http://www.w3.org/2000/svg">
<mask id="path-1-outside-1_493_389" maskUnits="userSpaceOnUse" x="1" y="1" width="22" height="22" fill="black">
<rect fill="white" x="1" y="1" width="22" height="22"/>
<path d="M21.1254 15.5401C21.2319 15.3802 21.2946 15.1859 21.2946 14.979C21.2946 14.418 20.8402 13.9635 20.2822 13.9635H20.2039V13.8946C20.2039 13.415 20.2948 12.9042 20.4766 12.34C20.6584 11.7758 20.8496 10.6945 20.7148 8.75437V5.11861C20.7148 4.56071 20.2603 4.10624 19.7024 4.10624C19.4987 4.10624 19.3075 4.16579 19.1476 4.27235V4.22534C19.1476 3.66744 18.6932 3.21297 18.1353 3.21297C17.9284 3.21297 17.7372 3.27565 17.5774 3.37908V3.01237C17.5774 2.45447 17.1229 2 16.565 2C16.051 2 15.6247 2.38552 15.5589 2.88387C15.399 2.7773 15.2047 2.71462 14.9979 2.71462C14.44 2.71462 13.9855 3.16909 13.9855 3.72699V3.85236H13.9009C13.4119 3.85236 12.901 3.7646 12.3431 3.57968C11.7758 3.39789 10.6882 3.20983 8.75751 3.34461H5.11861C4.55757 3.34461 4.1031 3.79908 4.1031 4.35384C4.1031 4.55757 4.16579 4.74876 4.26922 4.90861H4.22534C3.6643 4.90861 3.20983 5.36308 3.20983 5.92412C3.20983 6.12785 3.26938 6.3159 3.37281 6.47575H3.00924C2.45134 6.47575 2 6.93022 2 7.49126C2 8.00841 2.38552 8.43781 2.88387 8.49736C2.7773 8.66034 2.71462 8.85153 2.71462 9.06153C2.71462 9.61943 3.16909 10.0708 3.72385 10.0708H3.80534V10.1585C3.80534 10.6443 3.71445 11.1678 3.53266 11.7163C3.35087 12.2773 3.15968 13.3586 3.29446 15.2987V18.9376C3.29446 19.4955 3.75206 19.95 4.30996 19.95C4.51369 19.95 4.70488 19.8905 4.86473 19.7839V19.8278C4.86473 20.3857 5.3192 20.8402 5.8771 20.8402C6.08083 20.8402 6.27202 20.7806 6.43187 20.674V21.0376C6.43187 21.5955 6.88634 22.05 7.44424 22.05C7.95826 22.05 8.38453 21.6645 8.45035 21.1661C8.61019 21.2727 8.80452 21.3354 9.01138 21.3354C9.56928 21.3354 10.0238 20.8809 10.0238 20.323V20.182H10.1084C10.5973 20.182 11.1051 20.2697 11.663 20.4515C12.0955 20.5925 12.8289 20.7367 14.0106 20.7367C14.3804 20.7367 14.791 20.7242 15.2517 20.6897H18.8875C19.4454 20.6897 19.8999 20.2352 19.8999 19.6773C19.8999 19.4736 19.8403 19.2824 19.7337 19.1226H19.7776C20.3355 19.1226 20.79 18.6681 20.79 18.1102C20.79 17.9065 20.7304 17.7153 20.6239 17.5554H20.9875C21.5454 17.5554 21.9998 17.101 21.9998 16.5431C22.0092 16.0322 21.6206 15.6059 21.1254 15.5401ZM14.4368 3.72385C14.4368 3.41669 14.6844 3.16909 14.9916 3.16909C15.2987 3.16909 15.5464 3.41669 15.5464 3.72385C15.5464 3.72699 15.5464 3.72699 15.5464 3.72699V7.09634C15.5464 7.22171 15.6498 7.32514 15.7752 7.32514C15.9005 7.32514 16.004 7.22171 16.004 7.09634V3.72385C16.004 3.72072 16.004 3.72072 16.004 3.72072V3.01237C16.004 2.70521 16.2516 2.4576 16.5587 2.4576C16.8659 2.4576 17.1135 2.70521 17.1135 3.01237V4.22534C17.1135 4.22847 17.1135 4.23161 17.1135 4.23161V7.09947C17.1135 7.22484 17.2169 7.32827 17.3423 7.32827C17.4677 7.32827 17.5711 7.22484 17.5711 7.09947V4.2222C17.5711 4.21907 17.5711 4.21907 17.5711 4.21907C17.5742 3.91504 17.8218 3.67057 18.129 3.67057C18.4362 3.67057 18.6838 3.91818 18.6838 4.22534V5.11234C18.6838 5.11547 18.6838 5.11547 18.6838 5.11547V7.10261C18.6838 7.22798 18.7872 7.33141 18.9126 7.33141C19.0379 7.33141 19.1414 7.22798 19.1414 7.10261V5.12174C19.1414 5.11861 19.1414 5.11861 19.1414 5.11861C19.1414 4.81145 19.389 4.56384 19.6961 4.56384C20.0033 4.56384 20.2509 4.81145 20.2509 5.11861V8.77004C20.3794 10.6537 20.2039 11.6755 20.0346 12.1989C19.834 12.8101 19.74 13.3649 19.74 13.8946V13.9635H15.2141C15.1326 12.6001 14.3867 11.9639 14.3553 11.9357C14.3459 11.9294 14.3365 11.92 14.3271 11.9137C13.8068 11.6066 13.2301 10.8387 12.6503 9.69779C12.923 9.5254 13.3618 9.34362 13.9792 9.30287C13.9823 9.31541 13.9855 9.32481 13.9918 9.33735C14.0231 9.44705 14.1297 9.516 14.2456 9.50033C14.3585 9.48466 14.4431 9.3875 14.4431 9.27153V3.72385H14.4368ZM11.7163 14.0419C11.127 12.901 10.5409 12.1394 9.97047 11.7789C11.1458 11.1709 11.9263 10.5723 12.2836 9.99555C12.8697 11.1333 13.4558 11.8981 14.02 12.2616C12.854 12.8634 12.0767 13.4621 11.7163 14.0419ZM3.17222 9.06153C3.17222 8.75437 3.41983 8.50676 3.72385 8.50676C3.72385 8.50676 3.72385 8.50676 3.72699 8.50676H7.10261C7.22798 8.50676 7.33141 8.40333 7.33141 8.27796C7.33141 8.15259 7.22798 8.04916 7.10261 8.04916H3.72699C3.72699 8.04916 3.72699 8.04916 3.72385 8.04916H3.00924C2.70521 8.04916 2.4576 7.79842 2.4576 7.49439C2.4576 7.18723 2.70521 6.93962 3.00924 6.93962H4.20967C4.2128 6.93962 4.21907 6.94276 4.2222 6.94276H7.09947C7.22484 6.94276 7.32827 6.83933 7.32827 6.71396C7.32827 6.58858 7.22484 6.48515 7.09947 6.48515H4.23788C4.23474 6.48515 4.22847 6.48202 4.22534 6.48202C3.91818 6.48202 3.67057 6.23441 3.67057 5.93039C3.67057 5.62323 3.92131 5.37562 4.22534 5.37562H5.11547H7.10261C7.22798 5.37562 7.33141 5.27219 7.33141 5.14682C7.33141 5.02144 7.22798 4.91801 7.10261 4.91801H5.11861C4.81145 4.91801 4.56384 4.66727 4.56384 4.36325C4.56384 4.05922 4.81458 3.81161 5.11861 3.81161H8.77004C10.6443 3.67997 11.6724 3.85549 12.1989 4.02474C12.8039 4.2222 13.3586 4.31937 13.8977 4.31937H13.9792V8.8484C12.6033 8.92362 11.9639 9.67271 11.9388 9.70406C11.9294 9.71346 11.9231 9.72286 11.9169 9.7354C11.6097 10.2588 10.8355 10.8418 9.67271 11.431C9.61943 11.3464 9.55988 11.2461 9.5066 11.127C9.49406 11.0988 9.48152 11.0737 9.46899 11.0424C9.45332 11.0048 9.43764 10.9672 9.42511 10.9264C9.40003 10.8575 9.37809 10.7854 9.35615 10.707C9.34675 10.6757 9.34048 10.6381 9.33108 10.6036C9.30914 10.5158 9.29347 10.4218 9.2778 10.3215C9.27153 10.287 9.27153 10.2494 9.26839 10.2118C9.26526 10.1742 9.26526 10.1335 9.26212 10.0958C9.29033 10.0864 9.31854 10.077 9.34675 10.0708C9.45645 10.0363 9.52227 9.92973 9.5066 9.81689C9.49093 9.70406 9.39376 9.62257 9.28093 9.62257H3.72385C3.41983 9.61003 3.17222 9.36556 3.17222 9.06153ZM9.56928 20.3293C9.56928 20.6364 9.32168 20.884 9.01452 20.884C8.71049 20.884 8.45975 20.6364 8.45975 20.3293V16.9505C8.45975 16.8251 8.35632 16.7217 8.23095 16.7217C8.10557 16.7217 8.00214 16.8251 8.00214 16.9505V20.3261V21.0407C8.00214 21.3479 7.75454 21.5955 7.44738 21.5955C7.14022 21.5955 6.89261 21.3479 6.89261 21.0407V19.8278V16.9505C6.89261 16.8251 6.78918 16.7217 6.66381 16.7217C6.53844 16.7217 6.435 16.8251 6.435 16.9505V19.8278C6.435 20.1318 6.1874 20.3825 5.88024 20.3825C5.57308 20.3825 5.32547 20.1349 5.32547 19.8278V18.9376C5.32547 18.9345 5.32547 18.9345 5.32547 18.9314V16.9505C5.32547 16.8251 5.22204 16.7217 5.09667 16.7217C4.9713 16.7217 4.86787 16.8251 4.86787 16.9505V18.9376V18.9408C4.86473 19.2448 4.61712 19.4924 4.3131 19.4924C4.00594 19.4924 3.7552 19.2448 3.7552 18.9376V15.2831C3.62356 13.3994 3.80221 12.3807 3.97146 11.8573C4.16892 11.2618 4.26922 10.6914 4.26922 10.1554V10.077H8.79512C8.79825 10.1146 8.80452 10.1429 8.80765 10.1805C8.81706 10.287 8.82959 10.3905 8.84527 10.4876C8.85467 10.5346 8.86094 10.5817 8.87034 10.6255C8.89228 10.7321 8.91735 10.8293 8.94556 10.9233C8.9581 10.9609 8.9675 10.9954 8.98004 11.033C9.00825 11.1145 9.03646 11.1897 9.0678 11.2587C9.0866 11.3025 9.10541 11.3433 9.12422 11.3809C9.14616 11.4216 9.16496 11.4593 9.1869 11.4969C9.4063 11.8949 9.6351 12.0986 9.65391 12.1143C9.66331 12.1237 9.67272 12.13 9.68525 12.1363C10.2024 12.4403 10.776 13.1988 11.3527 14.3334C11.08 14.5058 10.6412 14.6907 10.0269 14.7283C10.0269 14.722 10.0238 14.7189 10.0206 14.7126C9.99241 14.5998 9.87958 14.5308 9.76988 14.5434C9.65704 14.5591 9.56928 14.6562 9.56928 14.7722V20.3293ZM20.9937 17.101H19.7839H16.9066C16.7813 17.101 16.6778 17.2044 16.6778 17.3298C16.6778 17.4551 16.7813 17.5586 16.9066 17.5586H19.7808C20.0879 17.5586 20.3355 17.8062 20.3355 18.1133C20.3355 18.4205 20.0879 18.6681 19.7808 18.6681H18.8906C18.8906 18.6681 18.8906 18.6681 18.8875 18.6681H16.9035C16.7781 18.6681 16.6747 18.7715 16.6747 18.8969C16.6747 19.0223 16.7781 19.1257 16.9035 19.1257H18.8906C19.1947 19.1257 19.4423 19.3733 19.4423 19.6805C19.4423 19.9876 19.1947 20.2352 18.8875 20.2352H15.2361C13.3618 20.3669 12.3369 20.1914 11.8072 20.019C11.2022 19.8215 10.6475 19.7275 10.1084 19.7275H10.0269V15.1984C11.3997 15.1201 12.0391 14.371 12.0673 14.3365C12.0736 14.3271 12.083 14.3177 12.0861 14.3083C12.3995 13.7818 13.1737 13.2019 14.3303 12.6189C14.5026 12.8854 14.697 13.3242 14.744 13.9416C14.7158 13.951 14.6907 13.9604 14.6625 13.9698C14.5528 14.0012 14.4838 14.1109 14.4995 14.2237C14.5152 14.3365 14.6123 14.4211 14.7283 14.4211H14.9289C14.9477 14.4274 14.9665 14.4337 14.9885 14.4337H19.9688C19.9908 14.4337 20.0096 14.4274 20.0284 14.4211H20.276C20.5831 14.4211 20.8307 14.6719 20.8307 14.979C20.8307 15.2831 20.5831 15.5307 20.2791 15.5338H20.276H16.9035C16.7781 15.5338 16.6747 15.6372 16.6747 15.7626C16.6747 15.888 16.7781 15.9914 16.9035 15.9914H20.2728C20.276 15.9914 20.276 15.9914 20.2791 15.9914H20.9937C21.3009 15.9914 21.5485 16.239 21.5485 16.5462C21.5485 16.8533 21.3009 17.101 20.9937 17.101Z"/>
</mask>
<path d="M21.1254 15.5401C21.2319 15.3802 21.2946 15.1859 21.2946 14.979C21.2946 14.418 20.8402 13.9635 20.2822 13.9635H20.2039V13.8946C20.2039 13.415 20.2948 12.9042 20.4766 12.34C20.6584 11.7758 20.8496 10.6945 20.7148 8.75437V5.11861C20.7148 4.56071 20.2603 4.10624 19.7024 4.10624C19.4987 4.10624 19.3075 4.16579 19.1476 4.27235V4.22534C19.1476 3.66744 18.6932 3.21297 18.1353 3.21297C17.9284 3.21297 17.7372 3.27565 17.5774 3.37908V3.01237C17.5774 2.45447 17.1229 2 16.565 2C16.051 2 15.6247 2.38552 15.5589 2.88387C15.399 2.7773 15.2047 2.71462 14.9979 2.71462C14.44 2.71462 13.9855 3.16909 13.9855 3.72699V3.85236H13.9009C13.4119 3.85236 12.901 3.7646 12.3431 3.57968C11.7758 3.39789 10.6882 3.20983 8.75751 3.34461H5.11861C4.55757 3.34461 4.1031 3.79908 4.1031 4.35384C4.1031 4.55757 4.16579 4.74876 4.26922 4.90861H4.22534C3.6643 4.90861 3.20983 5.36308 3.20983 5.92412C3.20983 6.12785 3.26938 6.3159 3.37281 6.47575H3.00924C2.45134 6.47575 2 6.93022 2 7.49126C2 8.00841 2.38552 8.43781 2.88387 8.49736C2.7773 8.66034 2.71462 8.85153 2.71462 9.06153C2.71462 9.61943 3.16909 10.0708 3.72385 10.0708H3.80534V10.1585C3.80534 10.6443 3.71445 11.1678 3.53266 11.7163C3.35087 12.2773 3.15968 13.3586 3.29446 15.2987V18.9376C3.29446 19.4955 3.75206 19.95 4.30996 19.95C4.51369 19.95 4.70488 19.8905 4.86473 19.7839V19.8278C4.86473 20.3857 5.3192 20.8402 5.8771 20.8402C6.08083 20.8402 6.27202 20.7806 6.43187 20.674V21.0376C6.43187 21.5955 6.88634 22.05 7.44424 22.05C7.95826 22.05 8.38453 21.6645 8.45035 21.1661C8.61019 21.2727 8.80452 21.3354 9.01138 21.3354C9.56928 21.3354 10.0238 20.8809 10.0238 20.323V20.182H10.1084C10.5973 20.182 11.1051 20.2697 11.663 20.4515C12.0955 20.5925 12.8289 20.7367 14.0106 20.7367C14.3804 20.7367 14.791 20.7242 15.2517 20.6897H18.8875C19.4454 20.6897 19.8999 20.2352 19.8999 19.6773C19.8999 19.4736 19.8403 19.2824 19.7337 19.1226H19.7776C20.3355 19.1226 20.79 18.6681 20.79 18.1102C20.79 17.9065 20.7304 17.7153 20.6239 17.5554H20.9875C21.5454 17.5554 21.9998 17.101 21.9998 16.5431C22.0092 16.0322 21.6206 15.6059 21.1254 15.5401ZM14.4368 3.72385C14.4368 3.41669 14.6844 3.16909 14.9916 3.16909C15.2987 3.16909 15.5464 3.41669 15.5464 3.72385C15.5464 3.72699 15.5464 3.72699 15.5464 3.72699V7.09634C15.5464 7.22171 15.6498 7.32514 15.7752 7.32514C15.9005 7.32514 16.004 7.22171 16.004 7.09634V3.72385C16.004 3.72072 16.004 3.72072 16.004 3.72072V3.01237C16.004 2.70521 16.2516 2.4576 16.5587 2.4576C16.8659 2.4576 17.1135 2.70521 17.1135 3.01237V4.22534C17.1135 4.22847 17.1135 4.23161 17.1135 4.23161V7.09947C17.1135 7.22484 17.2169 7.32827 17.3423 7.32827C17.4677 7.32827 17.5711 7.22484 17.5711 7.09947V4.2222C17.5711 4.21907 17.5711 4.21907 17.5711 4.21907C17.5742 3.91504 17.8218 3.67057 18.129 3.67057C18.4362 3.67057 18.6838 3.91818 18.6838 4.22534V5.11234C18.6838 5.11547 18.6838 5.11547 18.6838 5.11547V7.10261C18.6838 7.22798 18.7872 7.33141 18.9126 7.33141C19.0379 7.33141 19.1414 7.22798 19.1414 7.10261V5.12174C19.1414 5.11861 19.1414 5.11861 19.1414 5.11861C19.1414 4.81145 19.389 4.56384 19.6961 4.56384C20.0033 4.56384 20.2509 4.81145 20.2509 5.11861V8.77004C20.3794 10.6537 20.2039 11.6755 20.0346 12.1989C19.834 12.8101 19.74 13.3649 19.74 13.8946V13.9635H15.2141C15.1326 12.6001 14.3867 11.9639 14.3553 11.9357C14.3459 11.9294 14.3365 11.92 14.3271 11.9137C13.8068 11.6066 13.2301 10.8387 12.6503 9.69779C12.923 9.5254 13.3618 9.34362 13.9792 9.30287C13.9823 9.31541 13.9855 9.32481 13.9918 9.33735C14.0231 9.44705 14.1297 9.516 14.2456 9.50033C14.3585 9.48466 14.4431 9.3875 14.4431 9.27153V3.72385H14.4368ZM11.7163 14.0419C11.127 12.901 10.5409 12.1394 9.97047 11.7789C11.1458 11.1709 11.9263 10.5723 12.2836 9.99555C12.8697 11.1333 13.4558 11.8981 14.02 12.2616C12.854 12.8634 12.0767 13.4621 11.7163 14.0419ZM3.17222 9.06153C3.17222 8.75437 3.41983 8.50676 3.72385 8.50676C3.72385 8.50676 3.72385 8.50676 3.72699 8.50676H7.10261C7.22798 8.50676 7.33141 8.40333 7.33141 8.27796C7.33141 8.15259 7.22798 8.04916 7.10261 8.04916H3.72699C3.72699 8.04916 3.72699 8.04916 3.72385 8.04916H3.00924C2.70521 8.04916 2.4576 7.79842 2.4576 7.49439C2.4576 7.18723 2.70521 6.93962 3.00924 6.93962H4.20967C4.2128 6.93962 4.21907 6.94276 4.2222 6.94276H7.09947C7.22484 6.94276 7.32827 6.83933 7.32827 6.71396C7.32827 6.58858 7.22484 6.48515 7.09947 6.48515H4.23788C4.23474 6.48515 4.22847 6.48202 4.22534 6.48202C3.91818 6.48202 3.67057 6.23441 3.67057 5.93039C3.67057 5.62323 3.92131 5.37562 4.22534 5.37562H5.11547H7.10261C7.22798 5.37562 7.33141 5.27219 7.33141 5.14682C7.33141 5.02144 7.22798 4.91801 7.10261 4.91801H5.11861C4.81145 4.91801 4.56384 4.66727 4.56384 4.36325C4.56384 4.05922 4.81458 3.81161 5.11861 3.81161H8.77004C10.6443 3.67997 11.6724 3.85549 12.1989 4.02474C12.8039 4.2222 13.3586 4.31937 13.8977 4.31937H13.9792V8.8484C12.6033 8.92362 11.9639 9.67271 11.9388 9.70406C11.9294 9.71346 11.9231 9.72286 11.9169 9.7354C11.6097 10.2588 10.8355 10.8418 9.67271 11.431C9.61943 11.3464 9.55988 11.2461 9.5066 11.127C9.49406 11.0988 9.48152 11.0737 9.46899 11.0424C9.45332 11.0048 9.43764 10.9672 9.42511 10.9264C9.40003 10.8575 9.37809 10.7854 9.35615 10.707C9.34675 10.6757 9.34048 10.6381 9.33108 10.6036C9.30914 10.5158 9.29347 10.4218 9.2778 10.3215C9.27153 10.287 9.27153 10.2494 9.26839 10.2118C9.26526 10.1742 9.26526 10.1335 9.26212 10.0958C9.29033 10.0864 9.31854 10.077 9.34675 10.0708C9.45645 10.0363 9.52227 9.92973 9.5066 9.81689C9.49093 9.70406 9.39376 9.62257 9.28093 9.62257H3.72385C3.41983 9.61003 3.17222 9.36556 3.17222 9.06153ZM9.56928 20.3293C9.56928 20.6364 9.32168 20.884 9.01452 20.884C8.71049 20.884 8.45975 20.6364 8.45975 20.3293V16.9505C8.45975 16.8251 8.35632 16.7217 8.23095 16.7217C8.10557 16.7217 8.00214 16.8251 8.00214 16.9505V20.3261V21.0407C8.00214 21.3479 7.75454 21.5955 7.44738 21.5955C7.14022 21.5955 6.89261 21.3479 6.89261 21.0407V19.8278V16.9505C6.89261 16.8251 6.78918 16.7217 6.66381 16.7217C6.53844 16.7217 6.435 16.8251 6.435 16.9505V19.8278C6.435 20.1318 6.1874 20.3825 5.88024 20.3825C5.57308 20.3825 5.32547 20.1349 5.32547 19.8278V18.9376C5.32547 18.9345 5.32547 18.9345 5.32547 18.9314V16.9505C5.32547 16.8251 5.22204 16.7217 5.09667 16.7217C4.9713 16.7217 4.86787 16.8251 4.86787 16.9505V18.9376V18.9408C4.86473 19.2448 4.61712 19.4924 4.3131 19.4924C4.00594 19.4924 3.7552 19.2448 3.7552 18.9376V15.2831C3.62356 13.3994 3.80221 12.3807 3.97146 11.8573C4.16892 11.2618 4.26922 10.6914 4.26922 10.1554V10.077H8.79512C8.79825 10.1146 8.80452 10.1429 8.80765 10.1805C8.81706 10.287 8.82959 10.3905 8.84527 10.4876C8.85467 10.5346 8.86094 10.5817 8.87034 10.6255C8.89228 10.7321 8.91735 10.8293 8.94556 10.9233C8.9581 10.9609 8.9675 10.9954 8.98004 11.033C9.00825 11.1145 9.03646 11.1897 9.0678 11.2587C9.0866 11.3025 9.10541 11.3433 9.12422 11.3809C9.14616 11.4216 9.16496 11.4593 9.1869 11.4969C9.4063 11.8949 9.6351 12.0986 9.65391 12.1143C9.66331 12.1237 9.67272 12.13 9.68525 12.1363C10.2024 12.4403 10.776 13.1988 11.3527 14.3334C11.08 14.5058 10.6412 14.6907 10.0269 14.7283C10.0269 14.722 10.0238 14.7189 10.0206 14.7126C9.99241 14.5998 9.87958 14.5308 9.76988 14.5434C9.65704 14.5591 9.56928 14.6562 9.56928 14.7722V20.3293ZM20.9937 17.101H19.7839H16.9066C16.7813 17.101 16.6778 17.2044 16.6778 17.3298C16.6778 17.4551 16.7813 17.5586 16.9066 17.5586H19.7808C20.0879 17.5586 20.3355 17.8062 20.3355 18.1133C20.3355 18.4205 20.0879 18.6681 19.7808 18.6681H18.8906C18.8906 18.6681 18.8906 18.6681 18.8875 18.6681H16.9035C16.7781 18.6681 16.6747 18.7715 16.6747 18.8969C16.6747 19.0223 16.7781 19.1257 16.9035 19.1257H18.8906C19.1947 19.1257 19.4423 19.3733 19.4423 19.6805C19.4423 19.9876 19.1947 20.2352 18.8875 20.2352H15.2361C13.3618 20.3669 12.3369 20.1914 11.8072 20.019C11.2022 19.8215 10.6475 19.7275 10.1084 19.7275H10.0269V15.1984C11.3997 15.1201 12.0391 14.371 12.0673 14.3365C12.0736 14.3271 12.083 14.3177 12.0861 14.3083C12.3995 13.7818 13.1737 13.2019 14.3303 12.6189C14.5026 12.8854 14.697 13.3242 14.744 13.9416C14.7158 13.951 14.6907 13.9604 14.6625 13.9698C14.5528 14.0012 14.4838 14.1109 14.4995 14.2237C14.5152 14.3365 14.6123 14.4211 14.7283 14.4211H14.9289C14.9477 14.4274 14.9665 14.4337 14.9885 14.4337H19.9688C19.9908 14.4337 20.0096 14.4274 20.0284 14.4211H20.276C20.5831 14.4211 20.8307 14.6719 20.8307 14.979C20.8307 15.2831 20.5831 15.5307 20.2791 15.5338H20.276H16.9035C16.7781 15.5338 16.6747 15.6372 16.6747 15.7626C16.6747 15.888 16.7781 15.9914 16.9035 15.9914H20.2728C20.276 15.9914 20.276 15.9914 20.2791 15.9914H20.9937C21.3009 15.9914 21.5485 16.239 21.5485 16.5462C21.5485 16.8533 21.3009 17.101 20.9937 17.101Z" fill="#0A0A0D"/>
<path d="M21.1254 15.5401C21.2319 15.3802 21.2946 15.1859 21.2946 14.979C21.2946 14.418 20.8402 13.9635 20.2822 13.9635H20.2039V13.8946C20.2039 13.415 20.2948 12.9042 20.4766 12.34C20.6584 11.7758 20.8496 10.6945 20.7148 8.75437V5.11861C20.7148 4.56071 20.2603 4.10624 19.7024 4.10624C19.4987 4.10624 19.3075 4.16579 19.1476 4.27235V4.22534C19.1476 3.66744 18.6932 3.21297 18.1353 3.21297C17.9284 3.21297 17.7372 3.27565 17.5774 3.37908V3.01237C17.5774 2.45447 17.1229 2 16.565 2C16.051 2 15.6247 2.38552 15.5589 2.88387C15.399 2.7773 15.2047 2.71462 14.9979 2.71462C14.44 2.71462 13.9855 3.16909 13.9855 3.72699V3.85236H13.9009C13.4119 3.85236 12.901 3.7646 12.3431 3.57968C11.7758 3.39789 10.6882 3.20983 8.75751 3.34461H5.11861C4.55757 3.34461 4.1031 3.79908 4.1031 4.35384C4.1031 4.55757 4.16579 4.74876 4.26922 4.90861H4.22534C3.6643 4.90861 3.20983 5.36308 3.20983 5.92412C3.20983 6.12785 3.26938 6.3159 3.37281 6.47575H3.00924C2.45134 6.47575 2 6.93022 2 7.49126C2 8.00841 2.38552 8.43781 2.88387 8.49736C2.7773 8.66034 2.71462 8.85153 2.71462 9.06153C2.71462 9.61943 3.16909 10.0708 3.72385 10.0708H3.80534V10.1585C3.80534 10.6443 3.71445 11.1678 3.53266 11.7163C3.35087 12.2773 3.15968 13.3586 3.29446 15.2987V18.9376C3.29446 19.4955 3.75206 19.95 4.30996 19.95C4.51369 19.95 4.70488 19.8905 4.86473 19.7839V19.8278C4.86473 20.3857 5.3192 20.8402 5.8771 20.8402C6.08083 20.8402 6.27202 20.7806 6.43187 20.674V21.0376C6.43187 21.5955 6.88634 22.05 7.44424 22.05C7.95826 22.05 8.38453 21.6645 8.45035 21.1661C8.61019 21.2727 8.80452 21.3354 9.01138 21.3354C9.56928 21.3354 10.0238 20.8809 10.0238 20.323V20.182H10.1084C10.5973 20.182 11.1051 20.2697 11.663 20.4515C12.0955 20.5925 12.8289 20.7367 14.0106 20.7367C14.3804 20.7367 14.791 20.7242 15.2517 20.6897H18.8875C19.4454 20.6897 19.8999 20.2352 19.8999 19.6773C19.8999 19.4736 19.8403 19.2824 19.7337 19.1226H19.7776C20.3355 19.1226 20.79 18.6681 20.79 18.1102C20.79 17.9065 20.7304 17.7153 20.6239 17.5554H20.9875C21.5454 17.5554 21.9998 17.101 21.9998 16.5431C22.0092 16.0322 21.6206 15.6059 21.1254 15.5401ZM14.4368 3.72385C14.4368 3.41669 14.6844 3.16909 14.9916 3.16909C15.2987 3.16909 15.5464 3.41669 15.5464 3.72385C15.5464 3.72699 15.5464 3.72699 15.5464 3.72699V7.09634C15.5464 7.22171 15.6498 7.32514 15.7752 7.32514C15.9005 7.32514 16.004 7.22171 16.004 7.09634V3.72385C16.004 3.72072 16.004 3.72072 16.004 3.72072V3.01237C16.004 2.70521 16.2516 2.4576 16.5587 2.4576C16.8659 2.4576 17.1135 2.70521 17.1135 3.01237V4.22534C17.1135 4.22847 17.1135 4.23161 17.1135 4.23161V7.09947C17.1135 7.22484 17.2169 7.32827 17.3423 7.32827C17.4677 7.32827 17.5711 7.22484 17.5711 7.09947V4.2222C17.5711 4.21907 17.5711 4.21907 17.5711 4.21907C17.5742 3.91504 17.8218 3.67057 18.129 3.67057C18.4362 3.67057 18.6838 3.91818 18.6838 4.22534V5.11234C18.6838 5.11547 18.6838 5.11547 18.6838 5.11547V7.10261C18.6838 7.22798 18.7872 7.33141 18.9126 7.33141C19.0379 7.33141 19.1414 7.22798 19.1414 7.10261V5.12174C19.1414 5.11861 19.1414 5.11861 19.1414 5.11861C19.1414 4.81145 19.389 4.56384 19.6961 4.56384C20.0033 4.56384 20.2509 4.81145 20.2509 5.11861V8.77004C20.3794 10.6537 20.2039 11.6755 20.0346 12.1989C19.834 12.8101 19.74 13.3649 19.74 13.8946V13.9635H15.2141C15.1326 12.6001 14.3867 11.9639 14.3553 11.9357C14.3459 11.9294 14.3365 11.92 14.3271 11.9137C13.8068 11.6066 13.2301 10.8387 12.6503 9.69779C12.923 9.5254 13.3618 9.34362 13.9792 9.30287C13.9823 9.31541 13.9855 9.32481 13.9918 9.33735C14.0231 9.44705 14.1297 9.516 14.2456 9.50033C14.3585 9.48466 14.4431 9.3875 14.4431 9.27153V3.72385H14.4368ZM11.7163 14.0419C11.127 12.901 10.5409 12.1394 9.97047 11.7789C11.1458 11.1709 11.9263 10.5723 12.2836 9.99555C12.8697 11.1333 13.4558 11.8981 14.02 12.2616C12.854 12.8634 12.0767 13.4621 11.7163 14.0419ZM3.17222 9.06153C3.17222 8.75437 3.41983 8.50676 3.72385 8.50676C3.72385 8.50676 3.72385 8.50676 3.72699 8.50676H7.10261C7.22798 8.50676 7.33141 8.40333 7.33141 8.27796C7.33141 8.15259 7.22798 8.04916 7.10261 8.04916H3.72699C3.72699 8.04916 3.72699 8.04916 3.72385 8.04916H3.00924C2.70521 8.04916 2.4576 7.79842 2.4576 7.49439C2.4576 7.18723 2.70521 6.93962 3.00924 6.93962H4.20967C4.2128 6.93962 4.21907 6.94276 4.2222 6.94276H7.09947C7.22484 6.94276 7.32827 6.83933 7.32827 6.71396C7.32827 6.58858 7.22484 6.48515 7.09947 6.48515H4.23788C4.23474 6.48515 4.22847 6.48202 4.22534 6.48202C3.91818 6.48202 3.67057 6.23441 3.67057 5.93039C3.67057 5.62323 3.92131 5.37562 4.22534 5.37562H5.11547H7.10261C7.22798 5.37562 7.33141 5.27219 7.33141 5.14682C7.33141 5.02144 7.22798 4.91801 7.10261 4.91801H5.11861C4.81145 4.91801 4.56384 4.66727 4.56384 4.36325C4.56384 4.05922 4.81458 3.81161 5.11861 3.81161H8.77004C10.6443 3.67997 11.6724 3.85549 12.1989 4.02474C12.8039 4.2222 13.3586 4.31937 13.8977 4.31937H13.9792V8.8484C12.6033 8.92362 11.9639 9.67271 11.9388 9.70406C11.9294 9.71346 11.9231 9.72286 11.9169 9.7354C11.6097 10.2588 10.8355 10.8418 9.67271 11.431C9.61943 11.3464 9.55988 11.2461 9.5066 11.127C9.49406 11.0988 9.48152 11.0737 9.46899 11.0424C9.45332 11.0048 9.43764 10.9672 9.42511 10.9264C9.40003 10.8575 9.37809 10.7854 9.35615 10.707C9.34675 10.6757 9.34048 10.6381 9.33108 10.6036C9.30914 10.5158 9.29347 10.4218 9.2778 10.3215C9.27153 10.287 9.27153 10.2494 9.26839 10.2118C9.26526 10.1742 9.26526 10.1335 9.26212 10.0958C9.29033 10.0864 9.31854 10.077 9.34675 10.0708C9.45645 10.0363 9.52227 9.92973 9.5066 9.81689C9.49093 9.70406 9.39376 9.62257 9.28093 9.62257H3.72385C3.41983 9.61003 3.17222 9.36556 3.17222 9.06153ZM9.56928 20.3293C9.56928 20.6364 9.32168 20.884 9.01452 20.884C8.71049 20.884 8.45975 20.6364 8.45975 20.3293V16.9505C8.45975 16.8251 8.35632 16.7217 8.23095 16.7217C8.10557 16.7217 8.00214 16.8251 8.00214 16.9505V20.3261V21.0407C8.00214 21.3479 7.75454 21.5955 7.44738 21.5955C7.14022 21.5955 6.89261 21.3479 6.89261 21.0407V19.8278V16.9505C6.89261 16.8251 6.78918 16.7217 6.66381 16.7217C6.53844 16.7217 6.435 16.8251 6.435 16.9505V19.8278C6.435 20.1318 6.1874 20.3825 5.88024 20.3825C5.57308 20.3825 5.32547 20.1349 5.32547 19.8278V18.9376C5.32547 18.9345 5.32547 18.9345 5.32547 18.9314V16.9505C5.32547 16.8251 5.22204 16.7217 5.09667 16.7217C4.9713 16.7217 4.86787 16.8251 4.86787 16.9505V18.9376V18.9408C4.86473 19.2448 4.61712 19.4924 4.3131 19.4924C4.00594 19.4924 3.7552 19.2448 3.7552 18.9376V15.2831C3.62356 13.3994 3.80221 12.3807 3.97146 11.8573C4.16892 11.2618 4.26922 10.6914 4.26922 10.1554V10.077H8.79512C8.79825 10.1146 8.80452 10.1429 8.80765 10.1805C8.81706 10.287 8.82959 10.3905 8.84527 10.4876C8.85467 10.5346 8.86094 10.5817 8.87034 10.6255C8.89228 10.7321 8.91735 10.8293 8.94556 10.9233C8.9581 10.9609 8.9675 10.9954 8.98004 11.033C9.00825 11.1145 9.03646 11.1897 9.0678 11.2587C9.0866 11.3025 9.10541 11.3433 9.12422 11.3809C9.14616 11.4216 9.16496 11.4593 9.1869 11.4969C9.4063 11.8949 9.6351 12.0986 9.65391 12.1143C9.66331 12.1237 9.67272 12.13 9.68525 12.1363C10.2024 12.4403 10.776 13.1988 11.3527 14.3334C11.08 14.5058 10.6412 14.6907 10.0269 14.7283C10.0269 14.722 10.0238 14.7189 10.0206 14.7126C9.99241 14.5998 9.87958 14.5308 9.76988 14.5434C9.65704 14.5591 9.56928 14.6562 9.56928 14.7722V20.3293ZM20.9937 17.101H19.7839H16.9066C16.7813 17.101 16.6778 17.2044 16.6778 17.3298C16.6778 17.4551 16.7813 17.5586 16.9066 17.5586H19.7808C20.0879 17.5586 20.3355 17.8062 20.3355 18.1133C20.3355 18.4205 20.0879 18.6681 19.7808 18.6681H18.8906C18.8906 18.6681 18.8906 18.6681 18.8875 18.6681H16.9035C16.7781 18.6681 16.6747 18.7715 16.6747 18.8969C16.6747 19.0223 16.7781 19.1257 16.9035 19.1257H18.8906C19.1947 19.1257 19.4423 19.3733 19.4423 19.6805C19.4423 19.9876 19.1947 20.2352 18.8875 20.2352H15.2361C13.3618 20.3669 12.3369 20.1914 11.8072 20.019C11.2022 19.8215 10.6475 19.7275 10.1084 19.7275H10.0269V15.1984C11.3997 15.1201 12.0391 14.371 12.0673 14.3365C12.0736 14.3271 12.083 14.3177 12.0861 14.3083C12.3995 13.7818 13.1737 13.2019 14.3303 12.6189C14.5026 12.8854 14.697 13.3242 14.744 13.9416C14.7158 13.951 14.6907 13.9604 14.6625 13.9698C14.5528 14.0012 14.4838 14.1109 14.4995 14.2237C14.5152 14.3365 14.6123 14.4211 14.7283 14.4211H14.9289C14.9477 14.4274 14.9665 14.4337 14.9885 14.4337H19.9688C19.9908 14.4337 20.0096 14.4274 20.0284 14.4211H20.276C20.5831 14.4211 20.8307 14.6719 20.8307 14.979C20.8307 15.2831 20.5831 15.5307 20.2791 15.5338H20.276H16.9035C16.7781 15.5338 16.6747 15.6372 16.6747 15.7626C16.6747 15.888 16.7781 15.9914 16.9035 15.9914H20.2728C20.276 15.9914 20.276 15.9914 20.2791 15.9914H20.9937C21.3009 15.9914 21.5485 16.239 21.5485 16.5462C21.5485 16.8533 21.3009 17.101 20.9937 17.101Z" stroke="#0A0A0D" stroke-width="0.32" mask="url(#path-1-outside-1_493_389)"/>
</svg>
