<svg width="175" height="64" viewBox="0 0 175 64" fill="none" xmlns="http://www.w3.org/2000/svg">
<path d="M162.077 30.4761V27.8401H158.799V23.742L158.689 23.776L155.611 24.7167L155.55 24.7351V27.8402H150.691V26.1104C150.691 25.305 150.871 24.6886 151.227 24.2775C151.58 23.8714 152.084 23.6649 152.728 23.6649C153.191 23.6649 153.67 23.7738 154.153 23.9885L154.273 24.0425V21.2664L154.217 21.2455C153.767 21.084 153.155 21.0026 152.396 21.0026C151.44 21.0026 150.572 21.2104 149.814 21.6222C149.056 22.0346 148.46 22.6233 148.042 23.3717C147.626 24.1193 147.415 24.9828 147.415 25.9383V27.8401H145.133V30.4761H147.415V41.5813H150.691V30.4761H155.55V37.5332C155.55 40.4397 156.923 41.9126 159.63 41.9126C160.074 41.9126 160.543 41.8605 161.021 41.7586C161.507 41.6539 161.839 41.5494 162.034 41.4377L162.077 41.4122V38.7518L161.944 38.8398C161.766 38.9581 161.545 39.0548 161.285 39.1268C161.024 39.2 160.806 39.2367 160.638 39.2367C160.004 39.2367 159.534 39.066 159.243 38.7292C158.949 38.3893 158.8 37.795 158.8 36.9636V30.4761H162.077ZM137.816 39.2371C136.627 39.2371 135.689 38.8433 135.029 38.0676C134.364 37.2879 134.027 36.1764 134.027 34.7641C134.027 33.307 134.364 32.1666 135.029 31.3732C135.69 30.585 136.619 30.185 137.789 30.185C138.925 30.185 139.83 30.567 140.478 31.3212C141.129 32.0792 141.459 33.2105 141.459 34.6845C141.459 36.1767 141.148 37.3229 140.536 38.0896C139.927 38.8505 139.012 39.2371 137.816 39.2371ZM137.962 27.5091C135.693 27.5091 133.891 28.173 132.606 29.4825C131.322 30.7921 130.671 32.6044 130.671 34.8695C130.671 37.021 131.307 38.7515 132.56 40.0122C133.814 41.2734 135.52 41.9123 137.63 41.9123C139.829 41.9123 141.595 41.2391 142.879 39.9115C144.164 38.5853 144.814 36.7901 144.814 34.5779C144.814 32.3928 144.204 30.6494 142.999 29.3971C141.794 28.1441 140.099 27.5091 137.962 27.5091ZM125.389 27.5091C123.846 27.5091 122.569 27.9033 121.594 28.6806C120.613 29.4626 120.115 30.4882 120.115 31.7292C120.115 32.3743 120.223 32.9473 120.434 33.4333C120.647 33.9209 120.976 34.3503 121.413 34.7106C121.847 35.068 122.517 35.4424 123.405 35.8233C124.151 36.13 124.707 36.3894 125.061 36.5938C125.406 36.7942 125.652 36.9956 125.79 37.1918C125.925 37.3838 125.993 37.6465 125.993 37.9707C125.993 38.8939 125.301 39.3431 123.876 39.3431C123.348 39.3431 122.745 39.2329 122.085 39.0157C121.43 38.8018 120.811 38.4885 120.251 38.0868L120.115 37.9894V41.1397L120.165 41.1629C120.629 41.3767 121.213 41.5569 121.902 41.6987C122.589 41.8407 123.214 41.9129 123.757 41.9129C125.431 41.9129 126.78 41.5167 127.764 40.7348C128.754 39.9474 129.256 38.8977 129.256 37.6137C129.256 36.6875 128.986 35.8932 128.453 35.2526C127.925 34.6172 127.007 34.0339 125.726 33.5183C124.706 33.1094 124.053 32.77 123.783 32.5094C123.523 32.2577 123.391 31.9017 123.391 31.4509C123.391 31.0513 123.554 30.7312 123.889 30.4719C124.226 30.2114 124.695 30.0788 125.283 30.0788C125.829 30.0788 126.387 30.165 126.943 30.3337C127.498 30.5025 127.985 30.7286 128.392 31.0051L128.526 31.0964V28.108L128.475 28.086C128.099 27.9252 127.604 27.7876 127.003 27.6759C126.404 27.565 125.861 27.5091 125.389 27.5091ZM111.574 39.2371C110.386 39.2371 109.448 38.8433 108.787 38.0676C108.122 37.2879 107.786 36.1767 107.786 34.7641C107.786 33.307 108.123 32.1666 108.788 31.3732C109.448 30.585 110.377 30.185 111.548 30.185C112.684 30.185 113.588 30.567 114.236 31.3212C114.887 32.0792 115.217 33.2105 115.217 34.6845C115.217 36.1767 114.906 37.3229 114.294 38.0896C113.685 38.8505 112.771 39.2371 111.574 39.2371ZM111.72 27.5091C109.451 27.5091 107.649 28.173 106.365 29.4825C105.081 30.7921 104.43 32.6044 104.43 34.8695C104.43 37.0218 105.065 38.7515 106.319 40.0122C107.572 41.2734 109.278 41.9123 111.389 41.9123C113.587 41.9123 115.354 41.2391 116.638 39.9115C117.922 38.5853 118.573 36.7901 118.573 34.5779C118.573 32.3928 117.962 30.6494 116.757 29.3971C115.552 28.1441 113.857 27.5091 111.72 27.5091ZM99.4564 30.2198V27.8401H96.2201V41.581H99.4564V34.552C99.4564 33.3568 99.7277 32.3748 100.263 31.6332C100.792 30.9004 101.496 30.529 102.356 30.529C102.648 30.529 102.975 30.577 103.329 30.672C103.68 30.7664 103.934 30.8689 104.084 30.9768L104.22 31.0752V27.8166L104.168 27.7941C103.866 27.6662 103.44 27.6017 102.9 27.6017C102.087 27.6017 101.359 27.8627 100.736 28.3766C100.189 28.8282 99.7932 29.4475 99.4908 30.2198H99.4564ZM90.4244 27.5091C88.9397 27.5091 87.6154 27.827 86.489 28.4539C85.3602 29.0821 84.4873 29.9791 83.8933 31.1196C83.302 32.2574 83.0018 33.5864 83.0018 35.0686C83.0018 36.3669 83.2929 37.5583 83.8682 38.6084C84.4438 39.6602 85.2586 40.4831 86.2899 41.0538C87.3198 41.6237 88.5101 41.9127 89.8281 41.9127C91.3661 41.9127 92.6792 41.6056 93.732 41L93.7746 40.9756V38.0143L93.6385 38.1135C93.1616 38.4605 92.6287 38.7374 92.0552 38.937C91.4832 39.1363 90.9617 39.2371 90.5044 39.2371C89.2346 39.2371 88.2151 38.8402 87.4752 38.0578C86.7336 37.2744 86.3576 36.1743 86.3576 34.7901C86.3576 33.3971 86.7497 32.2687 87.5225 31.4361C88.2929 30.606 89.3143 30.185 90.5579 30.185C91.6216 30.185 92.6581 30.5447 93.6388 31.2552L93.7746 31.3536V28.2335L93.7307 28.2088C93.3617 28.0025 92.8583 27.8321 92.2335 27.7029C91.6113 27.574 91.0027 27.5091 90.4244 27.5091ZM80.7729 27.8402H77.5366V41.581H80.7729V27.8402ZM79.1878 21.9866C78.6552 21.9866 78.1906 22.1677 77.8089 22.5265C77.4257 22.8864 77.2313 23.3395 77.2313 23.8743C77.2313 24.4006 77.4233 24.8455 77.803 25.1958C78.1801 25.5451 78.6462 25.7221 79.188 25.7221C79.7296 25.7221 80.1974 25.5451 80.5791 25.1964C80.9632 24.8455 81.158 24.4008 81.158 23.8743C81.158 23.3582 80.9684 22.9098 80.5949 22.541C80.2216 22.173 79.7481 21.9866 79.1878 21.9866ZM71.113 26.8264V41.581H74.4158V22.4072H69.8446L64.0343 36.6489L58.3958 22.4072H53.6384V41.5808H56.7422V26.825H56.8487L62.8029 41.581H65.1452L71.0065 26.8264H71.113Z" fill="#706D6E"/>
<path d="M27.2245 31.2055H12V16H27.2245V31.2055Z" fill="#F1511B"/>
<path d="M44.0341 31.2055H28.8099V16H44.0341V31.2055Z" fill="#80CC28"/>
<path d="M27.2241 48H12V32.7946H27.2241V48Z" fill="#00ADEF"/>
<path d="M44.0341 48H28.8099V32.7946H44.0341V48Z" fill="#FBBC09"/>
</svg>
