<svg width="118" height="64" viewBox="0 0 118 64" fill="none" xmlns="http://www.w3.org/2000/svg">
<path d="M46.2285 14.6529L37.9444 35.8249L29.6154 13.1822L20.7883 35.7743L13.2591 14.6529H9.83331L20.6539 44.3152L29.5321 21.7226L37.8521 44.34L49.6533 14.6529H46.2285Z" fill="#FF7300"/>
<path d="M62.8937 29.7235C61.5119 28.5927 54.2743 24.8277 53.3432 24.1768C52.4153 23.528 51.9493 22.5825 51.9493 21.3414C51.9493 20.0988 52.4222 19.0899 53.3654 18.315C54.3085 17.5353 55.4568 17.1504 56.8091 17.1504C57.6811 17.1504 58.4261 17.3183 59.0477 17.6593C59.6672 17.9988 60.2592 18.5499 60.8212 19.3117L61.1191 19.7741C61.2019 19.8338 61.3173 19.9747 61.4581 20.1969L63.9513 18.5911C63.1341 17.1515 62.1134 16.0587 60.8861 15.3096C59.6624 14.5632 58.3438 14.1889 56.9378 14.1889C54.5421 14.1889 52.5819 14.8641 51.0604 16.2192C49.5409 17.5733 48.7812 19.3117 48.7812 21.4285C48.7812 23.4293 49.4682 24.975 50.849 26.0598C52.2313 27.1452 59.1183 30.7249 60.1886 31.4587C61.2599 32.1909 61.7929 33.2768 61.7929 34.7163C61.7929 36.3528 61.2546 37.7117 60.168 38.796C59.0825 39.885 57.708 40.4261 56.0489 40.4261C54.5848 40.4261 53.3733 39.9753 52.4164 39.071C51.4579 38.1672 50.7799 36.8744 50.3861 35.1809L47.3425 36.1132C47.6077 37.2556 47.9952 38.2733 48.496 39.1597C49.0111 40.0645 49.648 40.8321 50.4077 41.4624C51.9139 42.7199 53.823 43.3486 56.1348 43.3486C58.5853 43.3486 60.6678 42.5066 62.3886 40.8294C64.1052 39.1507 64.9646 37.0988 64.9646 34.6709C64.9646 32.5007 64.275 30.8495 62.8937 29.7235Z" fill="#FF7300"/>
<path d="M98.3763 27.7818C99.0864 27.5797 99.8404 27.4778 100.646 27.4778C102.793 27.4778 104.532 28.1735 105.857 29.5635C107.187 30.9482 107.853 32.5847 107.853 34.4698C107.853 35.7949 107.535 37.0365 106.898 38.1968C106.265 39.3561 105.031 40.9313 103.198 42.9094L97.3888 49.1872H108.167V51.445H92.3112L101.233 41.7987C103.04 39.8555 104.218 38.4175 104.765 37.4799C105.311 36.545 105.583 35.5557 105.583 34.5205C105.583 33.2055 105.094 32.0726 104.112 31.1261C103.134 30.1801 101.935 29.7039 100.515 29.7039C99.7033 29.7039 98.9673 29.8517 98.3025 30.1458C98.3621 29.5788 98.3837 27.993 98.3763 27.7818Z" fill="black"/>
<path d="M81.3257 41.7559C88.4175 41.7559 94.1665 35.9379 94.1665 28.7611C94.1665 21.5843 88.4175 15.7663 81.3257 15.7663C74.2339 15.7663 68.4849 21.5843 68.4849 28.7611C68.4849 35.9379 74.2339 41.7559 81.3257 41.7559Z" fill="#FF7300"/>
<path d="M81.3257 12.8C72.4975 12.8 65.3411 19.9462 65.3411 28.7611C65.3411 37.576 72.4975 44.7222 81.3257 44.7222C90.1533 44.7222 97.3103 37.576 97.3103 28.7611C97.3103 19.9462 90.1533 12.8 81.3257 12.8ZM81.3257 41.7559C74.2341 41.7559 68.4848 35.9379 68.4848 28.7611C68.4848 21.5843 74.2341 15.7663 81.3257 15.7663C88.4172 15.7663 94.1665 21.5843 94.1665 28.7611C94.1665 35.9379 88.4172 41.7559 81.3257 41.7559Z" fill="black"/>
<path d="M94.1238 27.7486L89.4706 27.7597L87.1509 31.9396L81.3621 17.8093L76.1542 29.4168L68.5007 29.4004C68.5312 30.0397 68.6088 30.6668 68.7279 31.2787L77.3663 31.2971L81.2835 22.5657L86.8957 36.2642L90.5751 29.6348L94.1349 29.6263C94.1533 29.3402 94.1665 29.052 94.1665 28.7611C94.1665 28.4201 94.1491 28.0833 94.1238 27.7486Z" fill="white"/>
</svg>
