<svg width="85" height="64" viewBox="0 0 85 64" fill="none" xmlns="http://www.w3.org/2000/svg">
<path d="M72.384 23.3618C69.5415 9.48161 42.5917 8.60179 25.2214 19.1765V20.3455C42.5732 11.4227 67.1866 11.4804 69.4277 24.2632C70.1791 28.4931 67.7965 32.8999 63.5397 35.4378V38.7548C68.6586 36.8775 73.9098 30.8026 72.384 23.3618ZM40.809 47.6568C28.8268 48.762 16.3348 47.02 14.5836 37.6558C13.7268 33.0383 15.8333 28.1416 18.6235 25.0984V23.4726C13.5976 27.8794 10.8728 33.459 12.444 40.0468C14.4482 48.5005 25.1668 53.2864 41.5303 51.6975C48.0075 51.0692 56.4796 48.9842 62.3737 45.7487V41.1528C57.0233 44.3398 48.1782 46.9746 40.809 47.6568Z" fill="#0071C5"/>
<path d="M61.4032 21.343H58.2615V35.3363C58.2615 36.9767 59.0536 38.4033 61.4032 38.6318V21.343ZM23.9863 26.4527H20.8377L20.8346 35.5947C20.8346 37.2405 21.6314 38.6648 23.9863 38.8902V26.4527ZM20.8377 24.7469H23.977V21.7668H20.8377V24.7469ZM42.8047 38.7464C40.2629 38.7464 39.1877 36.9767 39.1877 35.234V23.0942H42.3002V26.4497H44.6458V28.9676H42.3002V35.0417C42.3002 35.7539 42.6363 36.1477 43.3784 36.1477H44.6458V38.7464H42.8047ZM51.0684 28.8199C50.0024 28.8199 49.1857 29.3698 48.8373 30.1089C48.6358 30.5534 48.5604 30.9018 48.5397 31.4486H53.3371C53.2771 30.1089 52.6703 28.8199 51.0684 28.8199ZM48.5397 33.5728C48.5397 35.1648 49.5341 36.3399 51.2975 36.3399C52.6796 36.3399 53.361 35.9554 54.16 35.1648L56.0858 37.0006C54.8514 38.2203 53.5563 38.9594 51.276 38.9594C48.2936 38.9594 45.4388 37.3343 45.4388 32.5907C45.4388 28.5346 47.9359 26.2428 51.2068 26.2428C54.533 26.2428 56.4442 28.9253 56.4442 32.4492V33.5728H48.5397ZM32.446 28.9676C33.3597 28.9676 33.7412 29.4183 33.7412 30.1512V38.7648H36.8559V30.132C36.8559 28.3839 35.9253 26.4558 33.1874 26.4558L26.7534 26.452V38.7633H29.8681V28.9676H32.446Z" fill="#0071C5"/>
</svg>
