<svg width="24" height="24" viewBox="0 0 24 24" fill="none" xmlns="http://www.w3.org/2000/svg">
<path d="M18.7784 11.1454V6.10125C18.7784 4.90241 17.7967 3.91222 16.5978 3.91222H16.3262V3.57029C16.3262 3.15953 16.163 2.76559 15.8726 2.47514C15.5821 2.18469 15.1882 2.02151 14.7774 2.02151C14.3666 2.02151 13.9727 2.18469 13.6823 2.47514C13.3918 2.76559 13.2286 3.15953 13.2286 3.57029V3.91222H7.54978V3.57029C7.54978 3.15382 7.38434 2.75441 7.08986 2.45993C6.79537 2.16544 6.39596 2 5.9795 2C5.56303 2 5.16362 2.16544 4.86914 2.45993C4.57465 2.75441 4.40921 3.15382 4.40921 3.57029V3.91222H4.17453C2.97564 3.91222 2 4.90241 2 6.10125V17.6837C2 18.8826 2.97564 19.8732 4.17453 19.8732H10.9975C11.5532 20.5379 12.2477 21.0728 13.0323 21.4402C13.8169 21.8077 14.6725 21.9987 15.5389 22C18.7956 22 21.4486 19.3466 21.4486 16.0897C21.4486 14.0255 20.3702 12.2017 18.7784 11.1454ZM14.0891 3.57029C14.0875 3.47967 14.104 3.38965 14.1378 3.30553C14.1715 3.22142 14.2218 3.14492 14.2856 3.08055C14.3494 3.01618 14.4255 2.96525 14.5093 2.93075C14.5931 2.89625 14.683 2.8789 14.7736 2.87971C14.8646 2.87874 14.9549 2.89593 15.0392 2.93028C15.1235 2.96462 15.2002 3.01543 15.2646 3.07973C15.3291 3.14402 15.38 3.22052 15.4146 3.30475C15.4491 3.38898 15.4665 3.47925 15.4658 3.57029V5.24589H14.0891V3.57029ZM5.26964 3.57029C5.27062 3.47845 5.28971 3.38771 5.32581 3.30327C5.36192 3.21883 5.41433 3.14234 5.48005 3.07818C5.54577 3.01403 5.6235 2.96348 5.70879 2.92942C5.79408 2.89536 5.88526 2.87847 5.97709 2.87971C6.36402 2.87971 6.68935 3.18339 6.68935 3.57029V5.24589H5.26964V3.57029ZM4.17453 4.77265H4.40921V5.694C4.40921 5.93157 4.60762 6.10632 4.84523 6.10632H7.10903C7.34659 6.10632 7.54978 5.93157 7.54978 5.694V4.77265H13.2286V5.694C13.2271 5.74864 13.2367 5.80301 13.2569 5.8538C13.2771 5.90458 13.3075 5.95069 13.3461 5.98931C13.3848 6.02792 13.431 6.05822 13.4818 6.07834C13.5326 6.09847 13.587 6.10799 13.6416 6.10632H15.9054C15.9605 6.10815 16.0153 6.09881 16.0666 6.07884C16.1179 6.05888 16.1647 6.02871 16.204 5.99017C16.2433 5.95163 16.2744 5.90551 16.2954 5.85461C16.3164 5.8037 16.3269 5.74907 16.3262 5.694V4.77265H16.5978C16.9483 4.77619 17.2833 4.91757 17.5304 5.1662C17.7774 5.41483 17.9167 5.75074 17.918 6.10125V7.48301H2.86043V6.10125C2.86043 5.37681 3.45009 4.77265 4.17453 4.77265ZM4.17453 19.0128C3.45009 19.0128 2.86043 18.4081 2.86043 17.6837V8.34345H17.918V10.6775C17.1691 10.3487 16.3601 10.1791 15.5422 10.1794C12.2854 10.1794 9.63414 12.8367 9.63414 16.0936C9.63248 17.1167 9.89696 18.1227 10.4016 19.0128H4.17453ZM15.5389 21.1319C14.5409 21.1319 13.5653 20.836 12.7355 20.2815C11.9056 19.727 11.2589 18.9389 10.877 18.0169C10.495 17.0948 10.3951 16.0803 10.5898 15.1014C10.7845 14.1226 11.2651 13.2235 11.9708 12.5178C12.6765 11.8121 13.5756 11.3315 14.5545 11.1368C15.5333 10.9421 16.5479 11.042 17.47 11.4239C18.392 11.8059 19.1801 12.4526 19.7345 13.2825C20.289 14.1123 20.5849 15.0879 20.5849 16.0859C20.5834 17.4237 20.0513 18.7063 19.1053 19.6523C18.1593 20.5983 16.8767 21.1304 15.5389 21.1319Z" fill="black"/>
<path d="M17.5656 16.0873H15.6809V13.4987C15.6809 13.3846 15.6355 13.2752 15.5549 13.1945C15.4742 13.1138 15.3648 13.0685 15.2507 13.0685C15.1366 13.0685 15.0271 13.1138 14.9464 13.1945C14.8658 13.2752 14.8204 13.3846 14.8204 13.4987V16.5171C14.8223 16.6321 14.8693 16.7417 14.9513 16.8223C15.0333 16.9029 15.1438 16.948 15.2587 16.9478H17.5656C17.6797 16.9478 17.7892 16.9024 17.8699 16.8218C17.9505 16.7411 17.9959 16.6317 17.9959 16.5176C17.9959 16.4035 17.9505 16.294 17.8699 16.2133C17.7892 16.1327 17.6797 16.0873 17.5656 16.0873Z" fill="black"/>
</svg>
