<svg width="24" height="24" viewBox="0 0 24 24" fill="none" xmlns="http://www.w3.org/2000/svg">
<path d="M21.4476 14.9466C21.7387 13.9958 21.8862 13.0044 21.8862 12C21.8862 6.48614 17.4256 2 11.9431 2C6.46062 2 2 6.48614 2 12C2 17.5139 6.46062 22 11.9431 22C13.1789 22 14.3827 21.7731 15.5239 21.3293C16.1027 21.5955 16.7435 21.7481 17.4207 21.7481C19.9457 21.7481 22 19.6824 22 17.143C22 16.3551 21.8018 15.6055 21.4476 14.9466ZM11.9431 21.3347C6.82535 21.3347 2.66155 17.147 2.66155 12C2.66155 6.85296 6.82535 2.66534 11.9431 2.66534C17.0609 2.66534 21.2247 6.85296 21.2247 12C21.2247 12.7516 21.1347 13.4946 20.9598 14.2169C20.4831 13.6341 19.8616 13.165 19.1293 12.8687C18.675 12.6849 18.1974 12.5815 17.7072 12.5511C17.7103 12.4786 17.7132 12.4067 17.7149 12.3327H20.1152C20.2978 12.3327 20.446 12.1836 20.446 12C20.446 11.8164 20.2978 11.6673 20.1152 11.6673H17.7114C17.6781 10.3555 17.4551 9.07962 17.0631 7.8971H18.6909C18.8735 7.8971 19.0217 7.74806 19.0217 7.56443C19.0217 7.38079 18.8735 7.23176 18.6909 7.23176H16.8218C16.3433 6.02972 15.6851 4.94278 14.8678 4.04125C14.7446 3.90552 14.5351 3.89643 14.4005 4.01952C14.2656 4.14349 14.2559 4.35374 14.3789 4.48947C15.087 5.27035 15.6672 6.20226 16.106 7.23154H12.2739V3.75427C12.2739 3.57064 12.1257 3.4216 11.9431 3.4216C11.7605 3.4216 11.6123 3.57064 11.6123 3.75427V7.23176H7.77997C8.2188 6.20226 8.7992 5.27035 9.50728 4.48969C9.63055 4.35396 9.62084 4.14349 9.48567 4.01974C9.35049 3.89599 9.14166 3.90552 9.01839 4.04147C8.20093 4.94278 7.54269 6.02994 7.06417 7.23198H4.89958C4.71699 7.23198 4.5688 7.38102 4.5688 7.56465C4.5688 7.74828 4.71699 7.89732 4.89958 7.89732H6.82315C6.43107 9.08006 6.2079 10.3557 6.17461 11.6676H3.65917C3.47658 11.6676 3.32839 11.8166 3.32839 12.0002C3.32839 12.1839 3.47658 12.3329 3.65917 12.3329H6.17372C6.20504 13.6416 6.42688 14.9188 6.81874 16.1031H4.89958C4.71699 16.1031 4.5688 16.2522 4.5688 16.4358C4.5688 16.6194 4.71699 16.7685 4.89958 16.7685H7.05778C7.51204 17.9126 8.13015 18.9523 8.89159 19.8246C8.95687 19.8995 9.04838 19.9379 9.14034 19.9379C9.21774 19.9379 9.29558 19.9106 9.35821 19.8552C9.49559 19.7341 9.50926 19.5238 9.38864 19.3859C8.73172 18.633 8.19013 17.7445 7.77534 16.7685H11.6123V20.2058C11.6123 20.3894 11.7605 20.5385 11.9431 20.5385C12.1257 20.5385 12.2739 20.3894 12.2739 20.2058V16.7682H12.8585C12.8483 16.8931 12.8415 17.0184 12.8415 17.1428C12.8415 18.6884 13.6051 20.0552 14.7701 20.8909C13.8603 21.1839 12.9125 21.3347 11.9431 21.3347ZM17.0534 12.3327C17.0514 12.4083 17.0483 12.4817 17.0452 12.5551C15.0614 12.7186 13.4058 14.1621 12.9608 16.1029H12.2739V12.3327H17.0534ZM12.2739 11.6673V7.8971H16.3669C16.7806 9.06986 17.0148 10.3491 17.0501 11.6673H12.2739ZM6.83594 11.6673C6.871 10.3491 7.10563 9.06986 7.51932 7.8971H11.6126V11.6673H6.83594ZM11.6123 12.3327V16.1029H7.51535C7.1021 14.9284 6.86813 13.6483 6.83527 12.3327H11.6123ZM17.4207 21.0825C15.2606 21.0825 13.503 19.3151 13.503 17.1428C13.503 16.9798 13.5132 16.8148 13.5333 16.6527C13.7756 14.686 15.4469 13.2027 17.4207 13.2027C17.9268 13.2027 18.4184 13.2981 18.8823 13.4857C20.3743 14.0894 21.3384 15.5245 21.3384 17.1426C21.3384 19.3151 19.5809 21.0825 17.4207 21.0825ZM19.3688 15.9235H18.6309C18.7577 15.8769 18.8488 15.7556 18.8488 15.6121V15.1426C18.8488 14.8558 18.6166 14.6223 18.3315 14.6223H16.5091C16.2236 14.6223 15.9914 14.8558 15.9914 15.1426V15.6121C15.9914 15.7556 16.0824 15.8769 16.2092 15.9235H15.4718C15.1867 15.9235 14.9545 16.157 14.9545 16.4438V19.1424C14.9545 19.4291 15.1867 19.6627 15.4718 19.6627H19.3684C19.6539 19.6627 19.8861 19.4291 19.8861 19.1424V16.4438C19.8866 16.157 19.6544 15.9235 19.3688 15.9235ZM16.6533 15.6121V15.2876H18.1875V15.6121C18.1875 15.7556 18.2786 15.8769 18.4054 15.9235H16.4353C16.5621 15.8769 16.6533 15.7558 16.6533 15.6121ZM19.225 18.9973H15.6165V16.5888H19.2248L19.225 18.9973Z" fill="#0A0A0D"/>
</svg>
