<svg width="137" height="64" viewBox="0 0 137 64" fill="none" xmlns="http://www.w3.org/2000/svg">
<path fill-rule="evenodd" clip-rule="evenodd" d="M82.1491 41.5875C75.5792 46.4248 66.0558 49 57.8544 49C46.358 49 36.0089 44.7609 28.1767 37.701C27.5614 37.1463 28.1092 36.3896 28.8515 36.8175C37.3031 41.7262 47.7554 44.6816 58.5491 44.6816C65.8296 44.6816 73.8365 43.1722 81.2003 40.0543C82.3119 39.5828 83.2408 40.7833 82.1571 41.5875H82.1491Z" fill="#F8981D"/>
<path fill-rule="evenodd" clip-rule="evenodd" d="M84.8802 38.4735C84.0387 37.3999 79.3266 37.9625 77.2067 38.216C76.5637 38.2913 76.4644 37.7327 77.044 37.3286C80.8033 34.694 86.9683 35.4547 87.6829 36.3342C88.4054 37.2256 87.4923 43.3901 83.9712 46.3337C83.4273 46.7854 82.9152 46.5437 83.1534 45.9455C83.9473 43.9685 85.7218 39.5432 84.8802 38.4696V38.4735Z" fill="#F8981D"/>
<path fill-rule="evenodd" clip-rule="evenodd" d="M77.3576 18.7082V16.145C77.3576 15.7567 77.6554 15.4952 78.0087 15.4952H89.5129C89.8821 15.4952 90.1759 15.7607 90.1759 16.141V18.3358C90.1759 18.7043 89.8623 19.1836 89.3105 19.9483L83.3519 28.4384C85.5631 28.3869 87.9052 28.7157 89.9139 29.8448C90.3664 30.0983 90.4895 30.4747 90.5252 30.8432V33.5768C90.5252 33.9532 90.1124 34.389 89.6797 34.1631C86.1387 32.313 81.4385 32.1109 77.5244 34.1869C77.1234 34.4008 76.7066 33.969 76.7066 33.5926V30.9937C76.7066 30.5777 76.7145 29.8686 77.1353 29.2347L84.0387 19.35H78.0285C77.6593 19.35 77.3656 19.0886 77.3656 18.7043L77.3576 18.7082ZM35.3976 34.7059H31.8963C31.5628 34.6861 31.2969 34.4325 31.2691 34.1156V16.1885C31.2691 15.828 31.5747 15.5428 31.9479 15.5428H35.207C35.5484 15.5586 35.8223 15.8161 35.8422 16.145V18.4864H35.9097C36.7592 16.2242 38.359 15.1664 40.5146 15.1664C42.6701 15.1664 44.0754 16.2242 45.0559 18.4864C45.9055 16.2242 47.8308 15.1664 49.8911 15.1664C51.3599 15.1664 52.9636 15.7686 53.9402 17.1275C55.0517 18.6369 54.8215 20.8238 54.8215 22.7492V34.0601C54.8215 34.4167 54.5158 34.7059 54.1427 34.7059H50.6453C50.296 34.6821 50.0181 34.4048 50.0181 34.0641V24.5598C50.0181 23.807 50.0816 21.9173 49.9189 21.2041C49.6569 19.9958 48.8748 19.6591 47.8625 19.6591C47.013 19.6591 46.1317 20.2256 45.7705 21.1289C45.4092 22.0361 45.445 23.5416 45.445 24.5598V34.0601C45.445 34.4167 45.1433 34.7059 44.7701 34.7059H41.2728C40.9235 34.6821 40.6456 34.4048 40.6456 34.0641V24.5598C40.6456 22.5591 40.9671 19.6194 38.486 19.6194C36.005 19.6194 36.0685 22.4878 36.0685 24.5598V34.0601C36.0685 34.4167 35.7668 34.7059 35.3936 34.7059H35.3976ZM100.08 15.1664C105.273 15.1664 108.083 19.6194 108.083 25.2769C108.083 30.9343 104.979 35.0862 100.08 35.0862C95.1817 35.0862 92.2084 30.6332 92.2084 25.0907C92.2084 19.5481 95.019 15.1704 100.08 15.1704V15.1664ZM100.112 18.8271C97.5318 18.8271 97.369 22.3333 97.369 24.5241C97.369 26.715 97.3373 31.3899 100.08 31.3899C102.823 31.3899 102.923 27.6183 102.923 25.3165C102.923 23.807 102.859 21.9965 102.399 20.5623C102.006 19.3183 101.224 18.8271 100.112 18.8271ZM114.82 34.7059H111.335C110.985 34.6821 110.707 34.4048 110.707 34.0641V16.1291C110.731 15.8003 111.021 15.5428 111.374 15.5428H114.621C114.927 15.5586 115.177 15.7646 115.245 16.0459V18.7875H115.312C116.293 16.3351 117.662 15.1664 120.08 15.1664C121.648 15.1664 123.184 15.7329 124.165 17.278C125.078 18.7122 125.078 21.1249 125.078 22.8602V34.1394C125.038 34.4563 124.752 34.7059 124.407 34.7059H120.898C120.572 34.6861 120.314 34.4484 120.274 34.1394V24.4053C120.274 22.4442 120.505 19.5759 118.087 19.5759C117.238 19.5759 116.452 20.1424 116.063 21.01C115.574 22.1035 115.507 23.1969 115.507 24.4053V34.0562C115.499 34.4127 115.197 34.7019 114.824 34.7019L114.82 34.7059ZM68.1876 26.1445C68.1876 27.5073 68.2193 28.6404 67.5326 29.8488C66.9768 30.8313 66.0915 31.4374 65.111 31.4374C63.7692 31.4374 62.9832 30.4153 62.9832 28.9058C62.9832 25.9306 65.6588 25.3917 68.1876 25.3917V26.1484V26.1445ZM71.7166 34.6584C71.4864 34.8644 71.1529 34.8802 70.8909 34.7416C69.7278 33.7788 69.5214 33.3312 68.8862 32.416C66.9649 34.3691 65.6033 34.9555 63.1142 34.9555C60.1687 34.9555 57.8742 33.141 57.8742 29.512C57.8742 26.6754 59.4145 24.7499 61.6057 23.8031C63.5033 22.9711 66.1551 22.8206 68.1876 22.5947V22.1431C68.1876 21.3111 68.255 20.3286 67.7628 19.6115C67.338 18.9697 66.5203 18.7043 65.7978 18.7043C64.4639 18.7043 63.277 19.3857 62.9832 20.8C62.9237 21.113 62.6935 21.426 62.3759 21.4419L58.9857 21.0774C58.6999 21.014 58.3823 20.7842 58.4617 20.3484C59.2398 16.24 62.9594 15 66.2861 15C67.9891 15 70.2161 15.4516 71.5579 16.7392C73.2609 18.3279 73.0981 20.4435 73.0981 22.7492V28.1888C73.0981 29.825 73.7809 30.5421 74.42 31.4255C74.6423 31.7425 74.6939 32.1228 74.4081 32.3526C73.6936 32.9508 72.4233 34.0522 71.7246 34.6742L71.7166 34.6663V34.6584ZM22.3094 26.1445C22.3094 27.5073 22.3411 28.6404 21.6544 29.8488C21.0986 30.8313 20.2134 31.4374 19.2328 31.4374C17.8911 31.4374 17.1051 30.4153 17.1051 28.9058C17.1051 25.9306 19.7807 25.3917 22.3094 25.3917V26.1484V26.1445ZM25.8385 34.6584C25.6082 34.8644 25.2708 34.8802 25.0128 34.7416C23.8496 33.7788 23.6432 33.3312 23.0081 32.416C21.0867 34.3691 19.7251 34.9555 17.24 34.9555C14.2945 34.9555 12 33.141 12 29.512C12 26.6754 13.5403 24.7499 15.7315 23.8031C17.6291 22.9711 20.2809 22.8206 22.3134 22.5947V22.1431C22.3134 21.3111 22.3769 20.3286 21.8886 19.6115C21.4638 18.9697 20.6461 18.7043 19.9236 18.7043C18.5898 18.7043 17.4028 19.3857 17.109 20.8C17.0495 21.113 16.8193 21.426 16.5017 21.4419L13.1115 21.0774C12.8257 21.014 12.5081 20.7842 12.5875 20.3484C13.3656 16.24 17.0813 15 20.4119 15C22.1149 15 24.3419 15.4516 25.6837 16.7392C27.3867 18.3279 27.2239 20.4435 27.2239 22.7492V28.1888C27.2239 29.825 27.9067 30.5421 28.5458 31.4255C28.7681 31.7425 28.8197 32.1228 28.5339 32.3526C27.8194 32.9508 26.5491 34.0522 25.8504 34.6742L25.8424 34.6663L25.8385 34.6584Z" fill="#231F20"/>
</svg>
