<svg width="135" height="64" viewBox="0 0 135 64" fill="none" xmlns="http://www.w3.org/2000/svg">
<path d="M42.2112 33.0673C42.17 28.7648 45.7399 26.6976 45.9005 26.5992C43.8911 23.6748 40.7701 23.2728 39.6584 23.2277C37.0026 22.957 34.4745 24.7863 33.124 24.7863C31.7735 24.7863 29.6941 23.2646 27.4913 23.3097C24.5926 23.3508 21.9204 24.9873 20.4257 27.5712C17.42 32.7638 19.6599 40.4747 22.5956 44.6952C24.0326 46.7583 25.7373 49.0838 27.9854 48.9977C30.1512 48.9116 30.9664 47.6032 33.5769 47.6032C36.1874 47.6032 36.9244 48.9977 39.2096 48.9567C41.536 48.9116 43.01 46.8485 44.4346 44.7772C46.0734 42.3778 46.7528 40.0604 46.794 39.9374C46.7404 39.9169 42.2606 38.2065 42.2112 33.0673Z" fill="black"/>
<path d="M39.6953 15C39.9135 16.9933 39.1106 18.9908 37.9166 20.4304C36.7267 21.866 34.7668 22.9857 32.8605 22.838C32.597 20.8857 33.5646 18.8513 34.668 17.5799C35.8991 16.1402 37.9784 15.0697 39.6953 15Z" fill="#232325"/>
<path d="M54.4852 37.296L52.5088 43.2637H49.9683L56.4368 24.2982H59.4014L65.8946 43.2637H63.2677L61.2337 37.296H54.4852ZM60.7272 35.3806L58.8661 29.9214C58.4421 28.6828 58.1621 27.5589 57.878 26.4597H57.8244C57.5403 27.5835 57.2315 28.7361 56.8651 29.8927L55.004 35.3765L60.7272 35.3806ZM67.8216 34.0886C67.8216 32.3454 67.7681 30.9345 67.7063 29.6425H69.938L70.0533 31.9804H70.1068C71.1238 30.3193 72.7337 29.3349 74.9654 29.3349C78.2717 29.3349 80.7546 32.1198 80.7546 36.2583C80.7546 41.1555 77.7612 43.5713 74.5413 43.5713C72.7337 43.5713 71.1526 42.7838 70.3333 41.4344H70.2797V48.8336H67.8216V34.0886ZM70.2756 37.7184C70.2756 38.0876 70.3291 38.4198 70.3909 38.7315C70.8438 40.446 72.3385 41.6313 74.1213 41.6313C76.7483 41.6313 78.2758 39.4944 78.2758 36.369C78.2758 33.6374 76.8347 31.3077 74.2078 31.3077C72.5155 31.3077 70.9344 32.5177 70.4486 34.3757C70.3621 34.6833 70.2797 35.0524 70.2797 35.3888L70.2756 37.7184ZM83.3238 34.0886C83.3238 32.3454 83.2703 30.9345 83.2086 29.6425H85.4402L85.5555 31.9804H85.609C86.626 30.3193 88.236 29.3349 90.4676 29.3349C93.774 29.3349 96.2568 32.1198 96.2568 36.2583C96.2568 41.1555 93.2634 43.5713 90.0435 43.5713C88.236 43.5713 86.6549 42.7838 85.8355 41.4344H85.782V48.8336H83.3238V34.0886ZM85.782 37.7184C85.782 38.0876 85.8355 38.4198 85.8973 38.7315C86.3502 40.446 87.8448 41.6313 89.6277 41.6313C92.2546 41.6313 93.7822 39.4944 93.7822 36.369C93.7822 33.6374 92.3411 31.3077 89.7141 31.3077C88.0219 31.3077 86.4408 32.5177 85.9549 34.3757C85.8684 34.6833 85.7861 35.0524 85.7861 35.3888L85.782 37.7184ZM98.8302 23.2851H101.317V43.2596H98.8302V23.2851ZM106.316 36.9022C106.369 40.2491 108.519 41.6313 111.001 41.6313C112.78 41.6313 113.855 41.3237 114.785 40.93L115.209 42.7018C114.337 43.0956 112.838 43.5467 110.664 43.5467C106.456 43.5467 103.94 40.7905 103.94 36.6808C103.94 32.571 106.369 29.3349 110.351 29.3349C114.814 29.3349 116 33.2437 116 35.7497C116 36.2583 115.946 36.6479 115.914 36.9022H106.316ZM113.604 35.1304C113.632 33.5554 112.953 31.1068 110.157 31.1068C107.642 31.1068 106.542 33.4159 106.345 35.1304H113.604Z" fill="black"/>
</svg>
