<svg width="88" height="64" viewBox="0 0 88 64" fill="none" xmlns="http://www.w3.org/2000/svg">
<path d="M10 16V18.19H23.0441V16H10ZM24.8866 16V18.19H43.4707C43.4707 18.19 41.5717 16 39.0592 16H24.8866ZM47.118 16V18.19H58.3614L57.6914 16H47.118ZM66.4224 16L65.7524 18.19H76.8911V16H66.4224ZM10 20.2575V22.4475H23.0441V20.2575H10ZM24.8866 20.26V22.4475H45.6273C45.6273 22.4475 45.3844 20.7625 44.9635 20.26H24.8866ZM47.118 20.26V22.4475H59.5967L58.9791 20.26H47.118ZM65.0887 20.26L64.471 22.4475H76.8974V20.26H65.0887ZM13.7687 24.515V26.7075H19.4156V24.515H13.7687ZM28.6553 24.515V26.7075H34.2875V24.515H28.6553ZM39.7941 24.515V26.7075H45.443C45.443 26.7075 45.7989 25.55 45.7989 24.515H39.7941ZM50.8826 24.515V26.7075H60.8781L60.2081 24.515H50.8826ZM63.8743 24.515L63.2043 26.7075H73.2313V24.515H63.8743ZM13.7687 28.775V30.965H19.4156V28.775H13.7687ZM28.6553 28.775V30.965H43.1022C43.1022 30.965 44.3082 29.84 44.6934 28.775H28.6553ZM50.8867 28.775V30.965H56.5336V29.75L56.8895 30.9675H67.2327L67.6179 29.75V30.9675H73.2313V28.7775H62.6285L62.0632 30.6325L61.4979 28.7775L50.8867 28.775ZM13.7687 33.035V35.225H19.4156V33.035H13.7687ZM28.6553 33.035V35.225H44.6725C44.2873 34.1625 43.0812 33.035 43.0812 33.035H28.6553ZM50.8867 33.035V35.225H56.5336V33.035H50.8867ZM57.5616 33.035L58.2442 35.225H66.0015L66.6297 33.035H57.5616ZM67.6242 33.035V35.225H73.2313V33.035H67.6242ZM13.7687 37.2925V39.4825H19.4156V37.2925H13.7687ZM28.6553 37.2925V39.4825H34.2875V37.2925H28.6553ZM39.7941 37.2925V39.4825H45.8031C45.8031 38.45 45.4472 37.2925 45.4472 37.2925H39.7941ZM50.8826 37.2925V39.4825H56.5294V37.2925H50.8826ZM58.8388 37.2925L59.5004 39.4825H64.7013L65.3713 37.2925H58.8388ZM67.62 37.2925V39.4825H73.2313V37.2925H67.62ZM10.1047 41.55V43.7425H23.1488V41.55H10.1047ZM24.8928 41.55V43.7425H44.9719C45.3948 43.2425 45.6356 41.55 45.6356 41.55H24.8928ZM47.2248 41.55V43.7425H56.521V41.55H47.2248ZM60.1118 41.55L60.7923 43.7425H63.4388L64.0774 41.55H60.1118ZM67.6074 41.55V43.7425H77V41.55H67.6074ZM10.1047 45.81V48H23.1488V45.81H10.1047ZM24.8928 45.81V47.9975H39.0675C41.58 47.9975 43.4812 45.81 43.4812 45.81H24.8928ZM47.2248 45.81V48H56.521V45.81H47.2248ZM61.3995 45.81L62.0548 47.9925L62.1679 47.995L62.8337 45.8075L61.3995 45.81ZM67.6053 45.81V48H77V45.81H67.6053Z" fill="#1F70C1"/>
</svg>
